<svg xmlns="http://www.w3.org/2000/svg" viewBox="0 0 780 634"><path d="M 424 601 L 425 601 Z" fill="black" stroke="none"/>
<path d="M 577 409 L 577 412 Z" fill="black" stroke="none"/>
<path d="M 455 331 L 452 334 L 452 335 L 450 337 L 450 338 L 449 339 L 448 339 L 448 340 L 447 341 L 446 341 L 445 342 L 445 343 L 444 344 L 443 344 L 443 345 L 442 346 L 440 346 L 439 347 L 438 346 L 426 346 L 425 345 L 424 345 L 423 344 L 418 344 L 417 343 L 414 343 L 413 342 L 413 352 L 414 353 L 414 354 L 415 355 L 415 358 L 418 361 L 418 364 L 419 364 L 420 365 L 420 367 L 427 374 L 428 374 L 429 375 L 429 376 L 428 377 L 428 382 L 427 383 L 427 384 L 425 386 L 425 392 L 428 392 L 429 391 L 429 390 L 430 389 L 431 389 L 431 387 L 432 386 L 433 386 L 433 385 L 434 384 L 434 383 L 436 381 L 436 380 L 437 379 L 446 379 L 447 380 L 449 380 L 450 379 L 464 379 L 466 377 L 470 377 L 471 376 L 472 376 L 473 375 L 473 373 L 471 371 L 470 371 L 468 369 L 468 368 L 466 366 L 466 365 L 463 362 L 463 361 L 461 359 L 461 358 L 460 358 L 455 353 L 454 353 L 453 352 L 453 351 L 454 350 L 454 349 L 455 348 L 455 347 L 456 346 L 456 338 L 457 337 L 458 337 L 458 331 Z" fill="black" stroke="none"/>
<path d="M 413 170 L 413 173 Z" fill="black" stroke="none"/>
<path d="M 405 167 L 404 168 L 409 168 L 408 167 Z" fill="black" stroke="none"/>
<path d="M 348 136 L 347 137 L 346 137 L 343 140 L 342 140 L 338 144 L 337 144 L 333 148 L 332 148 L 330 150 L 330 151 L 327 154 L 326 154 L 319 161 L 318 161 L 314 165 L 314 166 L 312 168 L 311 168 L 288 191 L 288 192 L 285 195 L 285 196 L 277 204 L 277 205 L 272 210 L 272 211 L 268 215 L 268 216 L 265 219 L 265 220 L 262 223 L 262 224 L 259 227 L 259 228 L 256 231 L 256 232 L 252 236 L 252 237 L 249 240 L 249 241 L 248 242 L 248 243 L 247 244 L 247 245 L 245 247 L 244 247 L 243 248 L 243 250 L 242 251 L 242 257 L 241 258 L 240 257 L 240 256 L 239 256 L 238 257 L 238 258 L 237 259 L 237 260 L 234 263 L 234 265 L 232 267 L 232 268 L 231 269 L 231 270 L 229 272 L 229 273 L 227 275 L 227 276 L 226 277 L 226 278 L 225 279 L 225 280 L 224 281 L 224 282 L 223 283 L 223 284 L 221 286 L 221 287 L 220 288 L 220 289 L 219 290 L 219 292 L 218 293 L 218 299 L 217 300 L 216 299 L 216 298 L 215 298 L 215 299 L 214 300 L 214 301 L 213 302 L 213 303 L 212 304 L 212 305 L 211 306 L 211 308 L 210 309 L 210 310 L 209 311 L 209 312 L 208 313 L 208 314 L 207 315 L 207 316 L 206 317 L 206 318 L 205 319 L 205 322 L 202 325 L 202 328 L 201 329 L 201 330 L 200 331 L 200 332 L 199 333 L 199 334 L 197 336 L 197 339 L 196 340 L 196 343 L 195 344 L 195 346 L 194 347 L 194 348 L 193 349 L 193 350 L 192 351 L 192 354 L 193 355 L 193 359 L 192 360 L 191 359 L 191 356 L 190 356 L 190 362 L 191 363 L 191 365 L 190 366 L 189 365 L 188 365 L 188 374 L 187 375 L 186 374 L 186 373 L 186 376 L 187 377 L 187 378 L 183 382 L 183 386 L 184 387 L 184 389 L 183 390 L 183 393 L 182 394 L 181 393 L 181 389 L 180 390 L 180 396 L 181 396 L 182 397 L 181 398 L 181 402 L 180 403 L 179 402 L 179 399 L 178 399 L 178 407 L 179 408 L 179 411 L 178 412 L 178 417 L 177 418 L 176 417 L 176 410 L 176 411 L 175 412 L 175 417 L 176 417 L 177 418 L 177 422 L 176 423 L 176 428 L 175 429 L 174 428 L 174 422 L 174 423 L 173 424 L 173 433 L 174 434 L 174 435 L 173 436 L 173 437 L 172 438 L 172 439 L 171 440 L 171 442 L 170 443 L 170 449 L 172 451 L 172 458 L 171 459 L 171 469 L 170 470 L 169 469 L 169 463 L 168 463 L 168 478 L 167 479 L 167 484 L 169 486 L 171 484 L 171 482 L 172 481 L 172 476 L 173 475 L 173 456 L 174 455 L 174 449 L 175 448 L 175 439 L 176 438 L 176 432 L 177 431 L 177 427 L 178 426 L 178 420 L 179 419 L 179 416 L 180 415 L 180 410 L 181 409 L 181 406 L 182 405 L 182 402 L 183 401 L 183 396 L 184 395 L 184 394 L 185 393 L 185 389 L 186 388 L 186 385 L 187 384 L 187 382 L 188 381 L 188 378 L 189 377 L 189 375 L 190 374 L 190 371 L 191 370 L 191 369 L 192 368 L 192 365 L 193 364 L 193 362 L 194 361 L 194 360 L 195 359 L 195 356 L 196 355 L 196 354 L 197 353 L 197 351 L 198 350 L 198 347 L 200 345 L 200 342 L 201 341 L 201 340 L 202 339 L 202 337 L 203 336 L 203 335 L 204 334 L 204 333 L 205 332 L 205 329 L 207 327 L 207 325 L 208 324 L 208 323 L 209 322 L 209 321 L 210 320 L 210 318 L 212 316 L 212 314 L 213 313 L 213 312 L 214 311 L 214 310 L 215 309 L 215 307 L 217 305 L 217 303 L 219 301 L 219 300 L 220 299 L 220 297 L 222 295 L 222 293 L 224 291 L 224 290 L 225 289 L 225 287 L 227 285 L 227 284 L 228 283 L 228 282 L 230 280 L 230 278 L 232 276 L 232 275 L 234 273 L 234 272 L 235 271 L 235 270 L 237 268 L 237 267 L 238 266 L 238 265 L 240 263 L 240 262 L 242 260 L 242 259 L 244 257 L 244 255 L 247 252 L 247 251 L 249 249 L 249 248 L 251 246 L 251 245 L 254 242 L 254 241 L 255 240 L 255 239 L 257 237 L 257 236 L 258 235 L 259 235 L 259 234 L 261 232 L 261 231 L 264 228 L 264 227 L 267 224 L 267 223 L 270 220 L 270 219 L 274 215 L 274 214 L 278 210 L 278 209 L 285 202 L 285 201 L 291 195 L 291 194 L 301 184 L 301 183 L 302 182 L 303 182 L 303 181 L 304 180 L 305 180 L 308 177 L 308 176 L 309 175 L 310 175 L 310 174 L 311 173 L 312 173 L 313 172 L 313 171 L 314 170 L 315 170 L 325 160 L 326 160 L 336 150 L 337 150 L 343 144 L 344 144 L 348 140 L 349 140 L 351 138 L 355 138 L 358 141 L 358 142 L 359 143 L 359 205 L 360 206 L 360 207 L 361 207 L 363 209 L 364 209 L 367 206 L 368 206 L 387 187 L 388 187 L 388 186 L 389 185 L 390 185 L 390 184 L 392 182 L 393 182 L 403 172 L 405 172 L 406 171 L 407 171 L 408 172 L 409 172 L 411 174 L 411 190 L 410 191 L 410 212 L 409 213 L 409 233 L 408 234 L 408 237 L 409 238 L 409 239 L 412 242 L 414 242 L 415 243 L 420 243 L 421 244 L 423 244 L 424 245 L 425 245 L 426 246 L 430 246 L 432 248 L 434 248 L 435 249 L 436 249 L 437 250 L 438 250 L 439 251 L 440 251 L 442 253 L 444 253 L 446 255 L 447 255 L 448 256 L 449 256 L 451 258 L 452 258 L 454 260 L 455 260 L 458 263 L 459 263 L 465 269 L 466 269 L 479 282 L 479 283 L 486 290 L 486 291 L 489 294 L 489 295 L 492 298 L 492 299 L 493 300 L 493 301 L 495 303 L 495 304 L 497 306 L 497 307 L 499 309 L 499 311 L 501 313 L 501 314 L 502 315 L 502 316 L 504 318 L 504 319 L 505 320 L 505 321 L 506 322 L 506 323 L 507 324 L 507 325 L 508 326 L 508 327 L 509 328 L 509 330 L 511 332 L 511 334 L 512 335 L 512 336 L 514 338 L 514 341 L 516 343 L 516 345 L 517 346 L 517 347 L 518 348 L 518 349 L 519 350 L 519 351 L 520 352 L 520 353 L 521 354 L 521 355 L 522 356 L 522 357 L 524 359 L 524 360 L 526 362 L 526 363 L 527 364 L 527 365 L 528 366 L 528 367 L 531 370 L 531 371 L 534 374 L 534 375 L 542 383 L 542 384 L 543 384 L 544 385 L 544 386 L 545 386 L 552 393 L 553 393 L 556 396 L 557 396 L 560 399 L 561 399 L 563 401 L 564 401 L 566 403 L 567 403 L 568 404 L 569 404 L 571 406 L 572 406 L 573 407 L 573 418 L 572 419 L 572 422 L 571 423 L 571 429 L 570 430 L 570 433 L 569 434 L 569 435 L 568 436 L 568 440 L 567 441 L 567 442 L 566 443 L 566 445 L 565 446 L 565 447 L 564 448 L 564 449 L 563 450 L 563 452 L 561 454 L 561 455 L 560 456 L 560 457 L 558 459 L 558 460 L 556 462 L 556 463 L 553 466 L 553 467 L 548 472 L 548 473 L 547 474 L 546 474 L 546 475 L 545 476 L 544 476 L 544 477 L 542 479 L 541 479 L 536 484 L 535 484 L 531 488 L 530 488 L 529 489 L 528 489 L 526 491 L 525 491 L 523 493 L 522 493 L 521 494 L 520 494 L 518 496 L 517 496 L 516 497 L 515 497 L 513 499 L 511 499 L 509 501 L 507 501 L 506 502 L 505 502 L 504 503 L 503 503 L 502 504 L 499 504 L 497 506 L 494 506 L 493 507 L 492 507 L 491 508 L 490 508 L 489 509 L 486 509 L 485 510 L 484 510 L 483 511 L 479 511 L 478 512 L 476 512 L 475 513 L 474 513 L 473 514 L 468 514 L 467 515 L 464 515 L 463 516 L 460 516 L 459 517 L 458 517 L 457 518 L 455 518 L 454 519 L 453 519 L 452 520 L 451 520 L 450 521 L 448 521 L 446 523 L 444 523 L 441 526 L 439 526 L 436 529 L 435 529 L 431 533 L 430 533 L 426 537 L 426 538 L 423 541 L 423 542 L 420 545 L 420 546 L 419 547 L 419 548 L 418 549 L 418 551 L 417 552 L 417 553 L 416 554 L 416 558 L 415 559 L 415 574 L 416 575 L 416 582 L 417 583 L 417 585 L 418 586 L 418 593 L 419 594 L 419 596 L 420 597 L 420 599 L 421 600 L 421 601 L 422 601 L 422 599 L 423 598 L 423 590 L 422 589 L 422 587 L 421 586 L 421 579 L 420 578 L 420 580 L 419 581 L 418 580 L 418 578 L 417 577 L 417 574 L 418 573 L 419 573 L 419 561 L 420 560 L 420 556 L 421 555 L 421 553 L 422 552 L 422 551 L 423 550 L 423 549 L 424 548 L 424 547 L 426 545 L 426 543 L 425 542 L 425 541 L 426 540 L 427 541 L 428 541 L 428 538 L 429 537 L 430 538 L 432 538 L 439 531 L 440 531 L 441 530 L 442 530 L 443 529 L 444 529 L 446 527 L 447 527 L 448 526 L 450 526 L 450 525 L 451 524 L 452 524 L 453 523 L 455 523 L 456 522 L 457 522 L 458 521 L 462 521 L 463 520 L 465 520 L 466 519 L 471 519 L 472 518 L 473 518 L 474 517 L 476 517 L 477 516 L 481 516 L 481 515 L 480 514 L 481 513 L 482 513 L 483 512 L 484 512 L 485 513 L 489 513 L 489 512 L 488 511 L 489 510 L 490 510 L 491 511 L 494 511 L 494 510 L 495 509 L 501 509 L 502 508 L 503 508 L 504 507 L 505 507 L 506 506 L 507 506 L 508 505 L 509 505 L 510 504 L 511 504 L 512 503 L 513 503 L 514 502 L 515 502 L 516 501 L 517 501 L 518 500 L 519 500 L 520 499 L 521 499 L 523 497 L 524 497 L 525 496 L 526 496 L 527 495 L 528 495 L 529 494 L 530 494 L 535 489 L 536 489 L 542 483 L 543 483 L 554 472 L 554 471 L 558 467 L 558 466 L 560 464 L 560 463 L 561 462 L 561 461 L 563 459 L 563 457 L 562 456 L 563 455 L 565 455 L 566 454 L 566 453 L 568 451 L 568 450 L 569 449 L 569 447 L 570 446 L 570 445 L 571 444 L 571 441 L 573 439 L 573 432 L 572 431 L 572 429 L 573 428 L 574 429 L 575 429 L 575 421 L 574 420 L 574 411 L 575 410 L 575 406 L 574 405 L 573 405 L 572 404 L 571 404 L 570 403 L 571 402 L 571 401 L 568 398 L 567 398 L 565 396 L 563 396 L 561 394 L 560 394 L 555 389 L 554 389 L 540 375 L 540 374 L 534 368 L 534 367 L 531 364 L 531 363 L 530 362 L 530 361 L 529 360 L 529 359 L 527 357 L 527 356 L 526 355 L 526 354 L 524 352 L 524 351 L 523 350 L 523 349 L 522 348 L 522 347 L 521 346 L 521 345 L 520 345 L 519 344 L 519 339 L 517 337 L 517 336 L 516 335 L 516 334 L 515 333 L 515 332 L 514 331 L 514 329 L 513 328 L 513 327 L 512 326 L 512 325 L 511 324 L 511 323 L 510 322 L 510 321 L 509 320 L 509 319 L 508 318 L 508 317 L 507 316 L 507 315 L 506 314 L 506 313 L 504 311 L 504 310 L 502 308 L 502 307 L 501 306 L 501 305 L 499 303 L 499 302 L 498 301 L 498 300 L 497 299 L 497 298 L 494 295 L 494 294 L 492 292 L 492 291 L 490 289 L 490 288 L 489 288 L 487 286 L 487 285 L 482 280 L 482 279 L 472 269 L 471 269 L 462 260 L 461 260 L 459 258 L 458 258 L 456 256 L 455 256 L 452 253 L 451 253 L 449 251 L 448 251 L 447 250 L 446 250 L 445 249 L 444 249 L 443 248 L 442 248 L 441 247 L 440 247 L 439 246 L 438 246 L 437 245 L 436 245 L 435 244 L 433 244 L 432 243 L 431 243 L 429 245 L 428 244 L 428 242 L 427 241 L 424 241 L 423 242 L 418 242 L 417 241 L 418 240 L 421 240 L 421 239 L 419 239 L 418 238 L 416 238 L 414 236 L 414 231 L 413 230 L 413 197 L 412 196 L 412 175 L 411 174 L 411 172 L 409 170 L 403 170 L 402 171 L 401 170 L 400 170 L 398 172 L 397 172 L 388 181 L 387 181 L 367 201 L 366 201 L 364 203 L 363 203 L 362 204 L 361 203 L 361 192 L 360 191 L 360 165 L 361 164 L 361 143 L 362 142 L 362 141 L 361 140 L 361 139 L 361 140 L 360 141 L 358 139 L 358 138 L 357 138 L 356 137 L 350 137 L 349 136 Z" fill="black" stroke="none"/></svg>