<?xml version="1.0" encoding="UTF-8"?>
<svg version="1.1" xmlns="http://www.w3.org/2000/svg" width="780" height="634">
<path d="M0 0 C257.4 0 514.8 0 780 0 C780 209.22 780 418.44 780 634 C522.6 634 265.2 634 0 634 C0 424.78 0 215.56 0 0 Z " fill="#000000" transform="translate(0,0)"/>
<path d="M0 0 C0.5770166 0.43280273 1.1540332 0.86560547 1.74853516 1.31152344 C20.51797072 15.48045495 38.84230716 32.18447885 53 51 C53.63663574 51.83797119 53.63663574 51.83797119 54.28613281 52.69287109 C64.6945441 66.43182646 73.93870399 80.76155012 82 96 C82.63808594 97.19882812 82.63808594 97.19882812 83.2890625 98.421875 C94.74791545 120.26740752 103.47699252 144.70789243 108 169 C108.1330957 169.68384766 108.26619141 170.36769531 108.40332031 171.07226562 C115.47183466 207.72259527 115.01404391 245.5778198 107 282 C106.79391113 282.94214355 106.58782227 283.88428711 106.37548828 284.85498047 C95.61800886 333.01018939 72.5371966 375.21636608 40 412 C39.54995605 412.51320801 39.09991211 413.02641602 38.63623047 413.55517578 C34.04560956 418.78061591 29.41541426 423.75187168 24.08203125 428.22265625 C22.60674271 429.4820489 21.16967604 430.7868515 19.76171875 432.12109375 C6.28323739 444.88687158 -8.9756663 455.52862375 -25.00244141 464.83154297 C-26.80202561 465.88419636 -28.58024727 466.97316741 -30.35546875 468.06640625 C-62.59464257 487.50415417 -107.77944482 504.0597904 -146 502 C-146.18175781 501.10539063 -146.36351562 500.21078125 -146.55078125 499.2890625 C-146.80214844 498.07992187 -147.05351562 496.87078125 -147.3125 495.625 C-147.55613281 494.44164062 -147.79976563 493.25828125 -148.05078125 492.0390625 C-148.71143528 489.00798334 -149.60120495 486.10880233 -150.5625 483.16015625 C-153.74051353 472.70660908 -154.17976981 460.2182067 -149.27856445 450.27807617 C-146.96584533 446.11166274 -145.05884203 442.70589469 -141 440 C-140.67 439.01 -140.34 438.02 -140 437 C-137.04581363 434.3026994 -134.8146658 432.27155527 -131 431 C-130.319375 430.2884375 -130.319375 430.2884375 -129.625 429.5625 C-128 428 -128 428 -125.7109375 427.08984375 C-122.91845351 425.9672169 -120.54949684 424.59343552 -118 423 C-113.16020321 419.97512701 -108.91976207 417.8883369 -103.1875 417.375 C-102.39730469 417.30023437 -101.60710937 417.22546875 -100.79296875 417.1484375 C-100.20128906 417.09945313 -99.60960937 417.05046875 -99 417 C-99 416.34 -99 415.68 -99 415 C-97.96359375 414.80664062 -96.9271875 414.61328125 -95.859375 414.4140625 C-94.48952391 414.15135133 -93.11973548 413.88831329 -91.75 413.625 C-91.06808594 413.49867188 -90.38617188 413.37234375 -89.68359375 413.2421875 C-86.1382717 412.55377545 -83.17426431 411.6990005 -80 410 C-78.63353466 409.68895633 -77.2570747 409.41954575 -75.875 409.1875 C-71.26994682 408.23316332 -67.48576491 406.41642947 -63.34765625 404.22265625 C-61 403 -61 403 -57.3125 401.5 C-54.10663125 400.04828585 -51.66065419 398.40058992 -48.8671875 396.30859375 C-46.89417903 394.92583677 -44.87949231 393.81287227 -42.75 392.6875 C-33.80385983 387.80223574 -26.32355593 381.99549088 -20 374 C-15.17801748 368.16355668 -15.17801748 368.16355668 -13.60546875 366.71875 C1.22422877 350.8426748 5.69055002 327.94668407 5 307 C4.28972656 306.66226562 3.57945312 306.32453125 2.84765625 305.9765625 C1.92855469 305.53054688 1.00945312 305.08453125 0.0625 304.625 C-0.85402344 304.18414062 -1.77054688 303.74328125 -2.71484375 303.2890625 C-5 302 -5 302 -6 300 C-6.969375 299.484375 -7.93875 298.96875 -8.9375 298.4375 C-13.38217091 296.00068864 -16.8686525 292.67541396 -20.56640625 289.2421875 C-23.13584763 286.87483701 -25.79488706 284.65959851 -28.52734375 282.484375 C-30.45578654 280.54058651 -31.60953194 278.35907081 -33 276 C-34.16714706 274.42706343 -35.33506777 272.85464483 -36.515625 271.29174805 C-41.44203127 264.72289721 -44.91677193 258.33426886 -47.84375 250.66796875 C-48.71473281 247.87478369 -48.71473281 247.87478369 -51 247 C-51.78125 245.00390625 -51.78125 245.00390625 -52.5 242.5625 C-53.57316512 238.90617965 -53.57316512 238.90617965 -56 236 C-56.67258667 233.66836622 -57.33847444 231.3347961 -58 229 C-58.98482022 226.99248185 -59.98152514 224.99065541 -61 223 C-61 222.34 -61 221.68 -61 221 C-61.99 220.67 -62.98 220.34 -64 220 C-65.24609375 218.14453125 -65.24609375 218.14453125 -66.4375 215.8125 C-67.92859275 212.97897329 -69.42639575 210.25762141 -71.25 207.625 C-73 205 -73 205 -74 202 C-74.45375 201.566875 -74.9075 201.13375 -75.375 200.6875 C-77 199 -77 199 -78.21484375 196.359375 C-80.39915538 192.24885422 -83.11678087 189.035886 -86.1875 185.5625 C-87.05870483 184.56790771 -87.05870483 184.56790771 -87.94750977 183.55322266 C-92.00448672 178.98002627 -96.19420945 174.79172465 -101 171 C-103.89285962 168.63061022 -106.70709298 166.31731593 -109.25 163.5625 C-115.19535536 158.02250978 -122.72590807 154.50234056 -130 151 C-130 150.34 -130 149.68 -130 149 C-130.721875 148.87625 -131.44375 148.7525 -132.1875 148.625 C-135 148 -135 148 -137.1328125 147.05078125 C-141.62623111 145.40401067 -146.30049788 144.899512 -151.02539062 144.23242188 C-153.03391517 143.91491712 -155.02050886 143.4653976 -157 143 C-162.06287568 135.40568648 -158.73735752 121.28252616 -158 112.5625 C-157.24414807 103.53390154 -156.78299349 94.56152445 -156.75 85.5 C-156.74097656 84.47334229 -156.73195313 83.44668457 -156.72265625 82.38891602 C-156.72652344 81.44588623 -156.73039062 80.50285645 -156.734375 79.53125 C-156.73775879 78.28698242 -156.73775879 78.28698242 -156.74121094 77.01757812 C-156.82025251 74.77214803 -156.82025251 74.77214803 -159 73 C-163.02109799 73.14892956 -165.26683166 73.34609311 -168.3125 76.0625 C-168.869375 76.701875 -169.42625 77.34125 -170 78 C-170.66 78 -171.32 78 -172 78 C-172 78.66 -172 79.32 -172 80 C-173.609375 81.5859375 -173.609375 81.5859375 -175.75 83.375 C-178.06903702 85.33757727 -180.25219284 87.2588295 -182.375 89.4375 C-184 91 -184 91 -186 91 C-186.433125 91.86625 -186.433125 91.86625 -186.875 92.75 C-187.24625 93.4925 -187.6175 94.235 -188 95 C-188.433125 96.0209375 -188.433125 96.0209375 -188.875 97.0625 C-190.24272528 99.41802686 -191.70286795 100.56429247 -194 102 C-194.66 102 -195.32 102 -196 102 C-196.33 102.99 -196.66 103.98 -197 105 C-198.625 106.75 -198.625 106.75 -201 108 C-203.31 107.67 -205.62 107.34 -208 107 C-208 85.55 -208 64.1 -208 42 C-208.99 41.67 -209.98 41.34 -211 41 C-211 40.34 -211 39.68 -211 39 C-217.31084933 39.31282227 -220.54082082 40.52632933 -225 45.125 C-226.03321649 46.13086377 -227.06707149 47.13607207 -228.1015625 48.140625 C-228.5955957 48.63111328 -229.08962891 49.12160156 -229.59863281 49.62695312 C-231.46073955 51.45142844 -233.40454909 53.16878581 -235.375 54.875 C-235.99375 55.41382813 -236.6125 55.95265625 -237.25 56.5078125 C-238.93864179 57.94768117 -240.65274097 59.35066454 -242.375 60.75 C-245.13662624 62.91163165 -245.13662624 62.91163165 -247 66 C-247.99 66 -248.98 66 -250 66 C-250.20625 66.53625 -250.4125 67.0725 -250.625 67.625 C-252.53250426 70.91978009 -255.04819384 73.59363628 -258 76 C-258.66 76 -259.32 76 -260 76 C-260 76.66 -260 77.32 -260 78 C-260.66 78 -261.32 78 -262 78 C-262 78.66 -262 79.32 -262 80 C-262.66 80 -263.32 80 -264 80 C-264.33 80.99 -264.66 81.98 -265 83 C-265.66 83 -266.32 83 -267 83 C-267.23589844 83.56589844 -267.47179687 84.13179687 -267.71484375 84.71484375 C-269.29414316 87.52302052 -271.22686006 89.34382481 -273.5625 91.5625 C-278.02611905 95.92964313 -281.99605634 100.50393566 -285.88671875 105.3828125 C-288.38047208 108.47119463 -291.00807339 111.41622833 -293.6875 114.34375 C-295.21596078 116.07893638 -295.21596078 116.07893638 -296 119 C-296.598125 119.5775 -297.19625 120.155 -297.8125 120.75 C-299.99915025 122.99912597 -301.30812699 125.26248389 -302.80078125 128 C-305.65982925 132.76818429 -309.19991022 137.22920644 -313.16015625 141.125 C-315.30132434 143.30708213 -315.880512 145.16835388 -317 148 C-317.78862502 149.14186331 -318.60367418 150.26571386 -319.4375 151.375 C-321.25277661 153.80246667 -322.53053847 156.04908874 -323.625 158.875 C-324.07875 159.90625 -324.5325 160.9375 -325 162 C-325.99 162.33 -326.98 162.66 -328 163 C-329.71567661 166.50294871 -329.71567661 166.50294871 -331 170 C-331.66 170 -332.32 170 -333 170 C-333.27070313 170.54140625 -333.54140625 171.0828125 -333.8203125 171.640625 C-337.875 179.75 -337.875 179.75 -339.4765625 182.9453125 C-340.39656455 184.79003455 -341.31003142 186.63806467 -342.2109375 188.4921875 C-344.79375 193.79375 -344.79375 193.79375 -347 196 C-347.82029726 197.98022636 -348.58286941 199.98460346 -349.3125 202 C-351.1988517 207.04140012 -353.28256607 211.82527649 -355.7890625 216.5859375 C-361.9097214 228.78776718 -366.6844325 242.05329751 -371 255 C-371.66 255 -372.32 255 -373 255 C-373.226875 256.134375 -373.45375 257.26875 -373.6875 258.4375 C-374.74095061 263.18555241 -376.06540751 267.83652203 -377.4375 272.5 C-377.64270264 273.19923584 -377.84790527 273.89847168 -378.05932617 274.61889648 C-379.13525639 278.23801098 -380.28105982 281.81225332 -381.53125 285.375 C-383.19981418 290.3352203 -384.15248598 295.35448861 -385.0625 300.5 C-387.98331393 316.61726243 -387.98331393 316.61726243 -389.99829102 323.3215332 C-393.76593214 337.15703134 -393.75900422 352.31481751 -394.67724609 366.56274414 C-394.8500469 369.21559164 -395.03367536 371.86751593 -395.21875 374.51953125 C-395.26777466 375.32880569 -395.31679932 376.13808014 -395.36730957 376.97187805 C-395.63632401 380.74099435 -395.863403 382.7951045 -398 386 C-401.13237727 384.66371823 -402.69445087 383.44643653 -404.515625 380.578125 C-404.957854 379.89016846 -405.40008301 379.20221191 -405.85571289 378.4934082 C-406.31582764 377.7530835 -406.77594238 377.01275879 -407.25 376.25 C-407.73525146 375.48067139 -408.22050293 374.71134277 -408.72045898 373.91870117 C-410.16043267 371.62049652 -411.58271575 369.31224928 -413 367 C-413.5580835 366.10112061 -413.5580835 366.10112061 -414.12744141 365.18408203 C-425.47207117 346.79194822 -433.19161188 326.42516436 -440 306 C-440.3417627 304.97986816 -440.68352539 303.95973633 -441.03564453 302.90869141 C-443.72842431 294.55377554 -445.55534492 286.12911511 -447.125 277.5 C-447.25384583 276.7980249 -447.38269165 276.0960498 -447.51544189 275.37280273 C-457.39819567 221.19021784 -451.60207504 165.73951692 -430 115 C-429.52457764 113.8538623 -429.52457764 113.8538623 -429.03955078 112.68457031 C-419.71113807 90.19772786 -406.7637496 68.58303559 -391 50 C-390.2059375 49.03449219 -389.411875 48.06898438 -388.59375 47.07421875 C-383.36075063 40.74423056 -377.90908734 34.63555469 -372.3125 28.625 C-371.70720459 27.97128418 -371.10190918 27.31756836 -370.47827148 26.64404297 C-366.22787434 22.12249087 -361.74107897 18.00095974 -357 14 C-356.38697021 13.48083008 -355.77394043 12.96166016 -355.14233398 12.42675781 C-277.25545355 -52.93198823 -173.81127977 -72.26112331 0 0 Z " fill="#8A1919" transform="translate(568,99)"/>
<path d="M0 0 C0.02705729 1.77074917 0.04642195 3.54161711 0.0625 5.3125 C0.07410156 6.29863281 0.08570313 7.28476562 0.09765625 8.30078125 C0 11 0 11 -1 14 C-1.66 14 -2.32 14 -3 14 C-3 15.65 -3 17.3 -3 19 C-2.40058594 19.10054688 -1.80117188 19.20109375 -1.18359375 19.3046875 C1.40683175 20.12954571 2.24244201 21.03082863 3.9375 23.125 C4.44410156 23.75019531 4.95070313 24.37539063 5.47265625 25.01953125 C12 33.48337596 12 33.48337596 12 36 C13.32 36.33 14.64 36.66 16 37 C16 38.65 16 40.3 16 42 C10.54205361 43.37291408 5.40389085 44.12518609 -0.234375 44.0625 C-1.30300781 44.05605469 -2.37164062 44.04960937 -3.47265625 44.04296875 C-5.67380291 44.01410985 -7.87474236 43.9537415 -10.07421875 43.86328125 C-13.33115429 43.87512465 -15.90513825 43.96913629 -19 45 C-21.13539868 47.49945967 -22.41812616 49.83843336 -23.72753906 52.84765625 C-24.14745117 53.55792969 -24.56736328 54.26820313 -25 55 C-26.32 55 -27.64 55 -29 55 C-28.85764543 53.27054347 -28.71095618 51.54144346 -28.5625 49.8125 C-28.48128906 48.84957031 -28.40007812 47.88664062 -28.31640625 46.89453125 C-28 44 -28 44 -27.2265625 41.37109375 C-26.70823848 38.89350057 -26.70823848 38.89350057 -28.58203125 37.078125 C-29.31808594 36.47484375 -30.05414063 35.8715625 -30.8125 35.25 C-35.21168837 31.22700749 -36.45760152 27.85790362 -37 22 C-37.66 22 -38.32 22 -39 22 C-40.30492469 17.84055256 -41.12019705 14.34963091 -41 10 C-38.77057252 10.14179038 -36.54146372 10.28859698 -34.3125 10.4375 C-33.07113281 10.51871094 -31.82976562 10.59992188 -30.55078125 10.68359375 C-27.60982602 10.94565907 -24.87659547 11.37059108 -22 12 C-17.91052847 12.63584165 -17.91052847 12.63584165 -14 12 C-11.90563176 10.182002 -10.30124264 8.23550422 -8.6015625 6.046875 C-6.35211435 3.17197053 -3.83396225 0 0 0 Z " fill="#F0F0F0" transform="translate(456,335)"/>
<path d="M0 0 C1.65 0 3.3 0 5 0 C-3.62776972 8.73658844 -12.84108932 17.00800506 -22.375 24.75 C-25.13662624 26.91163165 -25.13662624 26.91163165 -27 30 C-27.99 30 -28.98 30 -30 30 C-30.20625 30.53625 -30.4125 31.0725 -30.625 31.625 C-32.53250426 34.91978009 -35.04819384 37.59363628 -38 40 C-38.66 40 -39.32 40 -40 40 C-40 40.66 -40 41.32 -40 42 C-40.66 42 -41.32 42 -42 42 C-42 42.66 -42 43.32 -42 44 C-42.66 44 -43.32 44 -44 44 C-44.33 44.99 -44.66 45.98 -45 47 C-45.66 47 -46.32 47 -47 47 C-47.23589844 47.56589844 -47.47179687 48.13179687 -47.71484375 48.71484375 C-49.29414316 51.52302052 -51.22686006 53.34382481 -53.5625 55.5625 C-58.02611905 59.92964313 -61.99605634 64.50393566 -65.88671875 69.3828125 C-68.38047208 72.47119463 -71.00807339 75.41622833 -73.6875 78.34375 C-75.21596078 80.07893638 -75.21596078 80.07893638 -76 83 C-80.31818182 87.77272727 -80.31818182 87.77272727 -84 89 C-84 88.01 -84 87.02 -84 86 C-83.34 86 -82.68 86 -82 86 C-81.90332031 85.4328125 -81.80664062 84.865625 -81.70703125 84.28125 C-80.84252051 81.49188939 -79.50833914 79.77702367 -77.6875 77.5 C-77.09324219 76.7471875 -76.49898438 75.994375 -75.88671875 75.21875 C-74 73 -74 73 -71.859375 70.8828125 C-69.86134051 69.03191502 -69.86134051 69.03191502 -68.5625 66.375 C-67 64 -67 64 -64.4375 63.0625 C-63.633125 62.711875 -62.82875 62.36125 -62 62 C-61.67 61.01 -61.34 60.02 -61 59 C-60.67 58.01 -60.34 57.02 -60 56 C-58.35636866 55.27840576 -56.68949614 54.60648579 -55 54 C-54.64552637 52.67213053 -54.31505461 51.33777034 -54 50 C-50.78730216 45.13092853 -46.50843298 41.758879 -41.81640625 38.40234375 C-39.43594392 36.56452444 -37.78858308 34.40533587 -36 32 C-33.11545963 28.8991191 -30.74740791 26.87370395 -27 25 C-26.505 23.515 -26.505 23.515 -26 22 C-25.01 22 -24.02 22 -23 22 C-23 21.34 -23 20.68 -23 20 C-21.625 18.375 -21.625 18.375 -20 17 C-19.34 17 -18.68 17 -18 17 C-18 16.34 -18 15.68 -18 15 C-17.01 15 -16.02 15 -15 15 C-15 14.01 -15 13.02 -15 12 C-14.01 12 -13.02 12 -12 12 C-12 11.34 -12 10.68 -12 10 C-8.53846154 7 -8.53846154 7 -6 7 C-6 6.34 -6 5.68 -6 5 C-4.34467377 3.98133771 -2.67739862 2.98189187 -1 2 C-0.67 1.34 -0.34 0.68 0 0 Z " fill="#902022" transform="translate(348,135)"/>
<path d="M0 0 C2.83192691 0.59619514 3.61033411 1.24251926 5.375 3.5 C5.74731445 5.63110352 5.74731445 5.63110352 5.73828125 8.12890625 C5.73892578 9.06871338 5.73957031 10.00852051 5.74023438 10.97680664 C5.72283203 11.99508545 5.70542969 13.01336426 5.6875 14.0625 C5.67912109 15.12009521 5.67074219 16.17769043 5.66210938 17.26733398 C5.52902192 26.3339167 4.86272831 35.3342326 4.09375 44.36572266 C2.49801474 58.07503849 2.49801474 58.07503849 4.375 71.5 C5.2825 71.438125 6.19 71.37625 7.125 71.3125 C15.45467363 71.3125 23.73791394 74.41579217 31.375 77.5 C31.375 78.16 31.375 78.82 31.375 79.5 C32.32375 79.78875 33.2725 80.0775 34.25 80.375 C37.375 81.5 37.375 81.5 39.375 83.5 C37.725 83.5 36.075 83.5 34.375 83.5 C34.375 82.84 34.375 82.18 34.375 81.5 C32.9828125 81.314375 32.9828125 81.314375 31.5625 81.125 C28.375 80.5 28.375 80.5 25.375 78.5 C25.375 77.84 25.375 77.18 25.375 76.5 C24.13363281 76.39042969 22.89226562 76.28085938 21.61328125 76.16796875 C19.97129103 76.00846113 18.32936722 75.8482688 16.6875 75.6875 C15.46256836 75.58211914 15.46256836 75.58211914 14.21289062 75.47460938 C9.58670925 75.00637239 6.14965767 74.45569841 2.375 71.5 C1.11705237 68.98410474 1.24560571 67.24799756 1.2421875 64.43359375 C1.24025391 63.39968506 1.23832031 62.36577637 1.23632812 61.30053711 C1.24083984 60.19073486 1.24535156 59.08093262 1.25 57.9375 C1.25193359 56.79869385 1.25386719 55.6598877 1.25585938 54.48657227 C1.29417692 46.95451411 1.62318134 39.51261566 2.15234375 32 C2.71484895 22.52344178 2.45288407 12.98867666 2.375 3.5 C1.78203125 3.65339844 1.1890625 3.80679688 0.578125 3.96484375 C-2.13601007 4.62412833 -4.86758105 5.06131971 -7.625 5.5 C-3.375 0.64285714 -3.375 0.64285714 0 0 Z " fill="#280303" transform="translate(406.625,170.5)"/>
<path d="M0 0 C1.71699524 1.13703918 1.71699524 1.13703918 3 3 C3.36076355 5.82841492 3.36076355 5.82841492 3.34057617 9.30737305 C3.34034958 10.60849533 3.34012299 11.90961761 3.33988953 13.25016785 C3.32456952 14.6706883 3.30892153 16.09120526 3.29296875 17.51171875 C3.28737276 18.96474266 3.28310267 20.41777224 3.28010559 21.87080383 C3.26865695 25.69320329 3.23918999 29.5152602 3.20599365 33.33752441 C3.17529295 37.23864101 3.16160028 41.13981302 3.14648438 45.04101562 C3.11431998 52.6941665 3.06312383 60.34703523 3 68 C8.32170494 68.29562367 8.32170494 68.29562367 13 66 C12.34 67.65 11.68 69.3 11 71 C7.535 71.495 7.535 71.495 4 72 C0.86483681 68.59829181 0.6324982 66.23030462 0.65942383 61.67089844 C0.65965042 60.38987244 0.65987701 59.10884644 0.66011047 57.78900146 C0.67542926 56.39578907 0.69107722 55.00258026 0.70703125 53.609375 C0.71262903 52.18020066 0.71689827 50.75102054 0.71989441 49.32183838 C0.73132899 45.5668539 0.7607838 41.81221954 0.79400635 38.05737305 C0.8247374 34.22319271 0.8384062 30.38895559 0.85351562 26.5546875 C0.8856552 19.03629901 0.9368343 11.51819863 1 4 C-4.07620614 2.81930114 -4.07620614 2.81930114 -8.625 4.75 C-9.40875 5.4925 -10.1925 6.235 -11 7 C-13.92509543 8.85493856 -16.89846479 10.46562528 -20 12 C-9.26081202 -1.21453272 -9.26081202 -1.21453272 0 0 Z " fill="#250404" transform="translate(357,138)"/>
<path d="M0 0 C0.99 0.495 0.99 0.495 2 1 C1.34 1.66 0.68 2.32 0 3 C-0.99 3 -1.98 3 -3 3 C-3 3.66 -3 4.32 -3 5 C-4.32 5 -5.64 5 -7 5 C-7 5.66 -7 6.32 -7 7 C-8.32 7 -9.64 7 -11 7 C-11.33 7.99 -11.66 8.98 -12 10 C-17.05341897 13.97897708 -22.51772439 17 -29 17 C-29 17.66 -29 18.32 -29 19 C-31.31 19.33 -33.62 19.66 -36 20 C-36 20.66 -36 21.32 -36 22 C-40.6174556 24.07314333 -45.09791505 25.6802079 -50 27 C-50.99 27.33 -51.98 27.66 -53 28 C-53.86625 28.165 -54.7325 28.33 -55.625 28.5 C-57.94461452 28.76252526 -57.94461452 28.76252526 -59 30 C-60.51928038 30.07179964 -62.04167482 30.08392007 -63.5625 30.0625 C-64.38878906 30.05347656 -65.21507812 30.04445313 -66.06640625 30.03515625 C-67.02353516 30.01775391 -67.02353516 30.01775391 -68 30 C-64.87120152 26.73711015 -62.32757215 25.12126846 -57.67578125 24.87890625 C-55.44668593 24.87540689 -53.22724409 24.91265709 -51 25 C-51 24.34 -51 23.68 -51 23 C-50.32453125 22.87882813 -49.6490625 22.75765625 -48.953125 22.6328125 C-48.06109375 22.46523438 -47.1690625 22.29765625 -46.25 22.125 C-45.36828125 21.96257812 -44.4865625 21.80015625 -43.578125 21.6328125 C-41.10266333 21.02519918 -39.17358885 20.32177701 -37 19 C-36.67 18.34 -36.34 17.68 -36 17 C-33.9609375 15.81640625 -33.9609375 15.81640625 -31.375 14.5625 C-30.4675 14.12164062 -29.56 13.68078125 -28.625 13.2265625 C-25.4477752 11.74196639 -22.22632321 10.3741747 -19 9 C-16.31448236 7.70354321 -13.65700685 6.35376014 -11 5 C-9.56349479 4.26887548 -8.12601531 3.53966159 -6.6875 2.8125 C-6.05199219 2.48894531 -5.41648437 2.16539062 -4.76171875 1.83203125 C-3 1 -3 1 0 0 Z " fill="#8F1E1F" transform="translate(533,490)"/>
<path d="M0 0 C2.0625 0.4375 2.0625 0.4375 4 1 C-1.16064328 3.51322108 -6.03741124 5.40384406 -11.67578125 6.49609375 C-14.22439508 7.04865036 -16.64568405 7.81856592 -19.125 8.625 C-23.28110701 9.91728952 -26.66870336 10.28247587 -31 10 C-31 10.66 -31 11.32 -31 12 C-31.65484375 12.14695312 -32.3096875 12.29390625 -32.984375 12.4453125 C-40.92099081 14.39583672 -50.08873843 17.08873843 -56 23 C-57.98821313 23.39764263 -59.98944339 23.73775349 -62 24 C-62.33 24.99 -62.66 25.98 -63 27 C-65.5625 28.1875 -65.5625 28.1875 -68 29 C-67.67 27.68 -67.34 26.36 -67 25 C-66.34 25 -65.68 25 -65 25 C-65 24.34 -65 23.68 -65 23 C-63.68 23 -62.36 23 -61 23 C-61 22.34 -61 21.68 -61 21 C-60.45730469 20.81824219 -59.91460937 20.63648438 -59.35546875 20.44921875 C-58.64003906 20.19785156 -57.92460937 19.94648437 -57.1875 19.6875 C-56.12595703 19.32205078 -56.12595703 19.32205078 -55.04296875 18.94921875 C-52.92407476 18.11848154 -52.92407476 18.11848154 -51.48828125 16.39453125 C-50 15 -50 15 -46 15 C-46 14.34 -46 13.68 -46 13 C-44.39658445 12.66307215 -42.79223445 12.33058907 -41.1875 12 C-40.29417969 11.814375 -39.40085937 11.62875 -38.48046875 11.4375 C-36 11 -36 11 -33 11 C-33 10.34 -33 9.68 -33 9 C-32.17757812 8.82984375 -31.35515625 8.6596875 -30.5078125 8.484375 C-25.06175948 7.30209097 -19.87602121 6.0903467 -14.75 3.875 C-10.12286218 1.88328601 -6.0050452 1.39722581 -1 1 C-0.67 0.67 -0.34 0.34 0 0 Z " fill="#290404" transform="translate(500,504)"/>
<path d="M0 0 C0.33 1.32 0.66 2.64 1 4 C0.34 4 -0.32 4 -1 4 C-1.10699219 4.70511719 -1.21398437 5.41023438 -1.32421875 6.13671875 C-2.0819804 9.3473505 -3.29686461 11.88482961 -4.8125 14.8125 C-5.35003906 15.85792969 -5.88757813 16.90335937 -6.44140625 17.98046875 C-6.95574219 18.97691406 -7.47007812 19.97335937 -8 21 C-8.75216637 22.54061087 -9.50252843 24.08210585 -10.25 25.625 C-12 29 -12 29 -14 31 C-14.71976504 32.70126282 -15.43770549 34.40338728 -16.13671875 36.11328125 C-17.44893101 38.98114787 -19.18111145 41.42846791 -21 44 C-21.66 43.67 -22.32 43.34 -23 43 C-22.34 40.03 -21.68 37.06 -21 34 C-20.34 34 -19.68 34 -19 34 C-18.896875 33.443125 -18.79375 32.88625 -18.6875 32.3125 C-17.85821592 29.5230899 -16.65700944 27.3860936 -15 25 C-14.34 25 -13.68 25 -13 25 C-13.061875 23.88625 -13.061875 23.88625 -13.125 22.75 C-12.99456907 19.88051956 -12.53915977 18.39424853 -11 16 C-10.34 15.67 -9.68 15.34 -9 15 C-8.505 13.845 -8.01 12.69 -7.5 11.5 C-6 8 -6 8 -4 7 C-3.855625 6.38125 -3.71125 5.7625 -3.5625 5.125 C-2.90282543 2.63289608 -1.91711371 1.6670554 0 0 Z " fill="#8F1F21" transform="translate(235,264)"/>
<path d="M0 0 C0.75 1.703125 0.75 1.703125 1 4 C-0.625 6.296875 -0.625 6.296875 -3 8.75 C-3.83144531 9.62914062 -4.66289062 10.50828125 -5.51953125 11.4140625 C-6.74736328 12.69410156 -6.74736328 12.69410156 -8 14 C-12.2200946 18.65140687 -16.12823059 23.38816412 -19.73828125 28.53125 C-20.15464844 29.0159375 -20.57101562 29.500625 -21 30 C-21.66 30 -22.32 30 -23 30 C-23.33 30.99 -23.66 31.98 -24 33 C-24.66 33 -25.32 33 -26 33 C-26.1546875 33.928125 -26.1546875 33.928125 -26.3125 34.875 C-27 37 -27 37 -30 39 C-28.18690997 35.22272911 -26.0926741 31.62730178 -24 28 C-23.34 28 -22.68 28 -22 28 C-21.88462891 27.40396973 -21.76925781 26.80793945 -21.65039062 26.19384766 C-20.58632822 22.60463415 -17.94230879 20.12352872 -15.5 17.375 C-14.96407227 16.76124512 -14.42814453 16.14749023 -13.87597656 15.51513672 C-12.25920826 13.6689816 -10.63197892 11.83271434 -9 10 C-8.28360352 9.1946582 -8.28360352 9.1946582 -7.55273438 8.37304688 C-5.05115881 5.5673724 -2.53362577 2.77675147 0 0 Z " fill="#360707" transform="translate(294,190)"/>
<path d="M0 0 C0.33 0 0.66 0 1 0 C2.81824994 13.9811063 3.55875576 27.91247036 4 42 C2.35 41.67 0.7 41.34 -1 41 C-1.2032114 27.31709918 -0.5839284 13.66796237 0 0 Z " fill="#921F20" transform="translate(412,198)"/>
<path d="M0 0 C0.66 0 1.32 0 2 0 C2.03738281 1.11117187 2.07476562 2.22234375 2.11328125 3.3671875 C2.41695421 10.71739707 2.76364302 17.45311041 5.234375 24.44140625 C6.84148015 29.81208928 7.29335499 35.4555545 8 41 C15.92 40.505 15.92 40.505 24 40 C20.31912647 42.45391569 17.55644412 42.22802759 13.3125 42.125 C12.61060547 42.11597656 11.90871094 42.10695313 11.18554688 42.09765625 C9.45688475 42.07413704 7.72839855 42.03826713 6 42 C2.31640518 27.74842199 -0.35913005 14.78418697 0 0 Z " fill="#320605" transform="translate(414,560)"/>
<path d="M0 0 C0.33 0 0.66 0 1 0 C1.30158839 5.95309262 0.62551196 9.72255251 -1.875 15.25 C-5.98126916 24.81618789 -7.10583907 34.14242043 -7.65625 44.50390625 C-8 47 -8 47 -10 50 C-10.60917938 53.08397061 -11.01467865 56.170624 -11.4375 59.28515625 C-12 62 -12 62 -14 64 C-14.19498665 58.44288054 -13.59106761 54.38205902 -12 49 C-11.49475596 46.67217406 -11.01633281 44.33839281 -10.5625 42 C-10.43472168 41.35337402 -10.30694336 40.70674805 -10.17529297 40.04052734 C-9.53469171 36.79350428 -8.91599868 33.54399286 -8.31640625 30.2890625 C-4.17744007 8.35488014 -4.17744007 8.35488014 0 0 Z " fill="#3D0808" transform="translate(190,370)"/>
<path d="M0 0 C0.495 0.99 0.495 0.99 1 2 C-0.2065625 3.0828125 -0.2065625 3.0828125 -1.4375 4.1875 C-4.19887785 6.69160947 -4.19887785 6.69160947 -4.375 9.5625 C-5 12 -5 12 -8.25 14 C-9.18779297 14.47179687 -9.18779297 14.47179687 -10.14453125 14.953125 C-12.95148915 16.53684019 -14.83161005 18.63448369 -17 21 C-16.34 21.33 -15.68 21.66 -15 22 C-15.99 22 -16.98 22 -18 22 C-18 22.66 -18 23.32 -18 24 C-18.65226563 24.17015625 -19.30453125 24.3403125 -19.9765625 24.515625 C-25.36722504 26.01038098 -29.54753872 27.60206902 -34 31 C-34.66 30.67 -35.32 30.34 -36 30 C-32.02999634 27.08326262 -28.11618879 24.49645053 -23.81640625 22.08203125 C-17.04498232 18.04830129 -11.95634957 13.08059472 -7 7 C-2.17153285 1.08576642 -2.17153285 1.08576642 0 0 Z " fill="#77191C" transform="translate(555,466)"/>
<path d="M0 0 C0.99 0 1.98 0 3 0 C3 0.99 3 1.98 3 3 C3.598125 3.268125 4.19625 3.53625 4.8125 3.8125 C6.99847854 4.99917406 8.41332594 6.09599113 10 8 C10 8.66 10 9.32 10 10 C10.99 10.33 11.98 10.66 13 11 C13.6875 13.0625 13.6875 13.0625 14 15 C14.99 15 15.98 15 17 15 C20 19.22222222 20 19.22222222 20 22 C20.66 22 21.32 22 22 22 C22 22.99 22 23.98 22 25 C18.32329416 23.48947977 16.28125538 21.3511385 13.6875 18.375 C12.90632813 17.48554688 12.12515625 16.59609375 11.3203125 15.6796875 C10.55460937 14.79539062 9.78890625 13.91109375 9 13 C7.68785059 11.49969331 6.37538886 9.99965966 5.0625 8.5 C4.24458984 7.55640625 4.24458984 7.55640625 3.41015625 6.59375 C2.31584855 5.3569701 1.16771869 4.16771869 0 3 C0 2.01 0 1.02 0 0 Z " fill="#901F22" transform="translate(471,270)"/>
<path d="M0 0 C-1.28519565 2.86697492 -2.57129254 4.97607712 -5 7 C-5.66 7 -6.32 7 -7 7 C-7 7.66 -7 8.32 -7 9 C-8.609375 10.5859375 -8.609375 10.5859375 -10.75 12.375 C-13.06903702 14.33757727 -15.25219284 16.2588295 -17.375 18.4375 C-19 20 -19 20 -21 20 C-21 20.66 -21 21.32 -21 22 C-21.99 22 -22.98 22 -24 22 C-23 20 -22 18 -21 16 C-20.34 16 -19.68 16 -19 16 C-19 15.34 -19 14.68 -19 14 C-17.35 13.34 -15.7 12.68 -14 12 C-14 11.34 -14 10.68 -14 10 C-13.34 10 -12.68 10 -12 10 C-12 9.01 -12 8.02 -12 7 C-11.01 7 -10.02 7 -9 7 C-8.67 6.01 -8.34 5.02 -8 4 C-3.65714286 0 -3.65714286 0 0 0 Z " fill="#922021" transform="translate(403,170)"/>
<path d="M0 0 C0.66 0.99 1.32 1.98 2 3 C1.67 3.99 1.34 4.98 1 6 C0.73383035 8.76731942 0.55631192 11.53427101 0.37890625 14.30859375 C0 17 0 17 -0.97265625 18.88671875 C-2.4690921 21.9649385 -2.62123573 24.98641256 -3 28.375 C-3.54352244 33.21817315 -4.43026222 37.40030326 -6 42 C-6.42134754 44.28359965 -6.79659899 46.57619294 -7.125 48.875 C-7.29257813 50.02742188 -7.46015625 51.17984375 -7.6328125 52.3671875 C-7.75398437 53.23601562 -7.87515625 54.10484375 -8 55 C-8.33 55 -8.66 55 -9 55 C-9.19427399 47.3153844 -9.32433282 40.36038726 -7 33 C-5.63098802 28.29402133 -4.44896834 23.61893653 -3.46484375 18.8203125 C-3 17 -3 17 -2 16 C-1.60006314 13.31137336 -1.24865457 10.63647783 -0.9375 7.9375 C-0.84662109 7.17888672 -0.75574219 6.42027344 -0.66210938 5.63867188 C-0.4375626 3.7595699 -0.21829022 1.87983905 0 0 Z " fill="#200203" transform="translate(183,401)"/>
<path d="M0 0 C0.33 0 0.66 0 1 0 C0.65053466 6.09756761 -0.01640182 10.58532182 -3 16 C-4.02161469 18.88982642 -4.99306686 21.79109394 -5.9375 24.70703125 C-6.288125 25.46371094 -6.63875 26.22039062 -7 27 C-7.99 27.33 -8.98 27.66 -10 28 C-10.12117187 28.69867188 -10.24234375 29.39734375 -10.3671875 30.1171875 C-10.53476563 31.02726562 -10.70234375 31.93734375 -10.875 32.875 C-11.11863281 34.23238281 -11.11863281 34.23238281 -11.3671875 35.6171875 C-12 38 -12 38 -14 40 C-13.39891424 34.34979382 -11.92471317 29.33835539 -10 24 C-9.34 24 -8.68 24 -8 24 C-7.91363281 23.40574219 -7.82726562 22.81148438 -7.73828125 22.19921875 C-6.70128019 16.08186386 -4.8258387 10.92569109 -2.12109375 5.34765625 C-0.90999959 2.93574932 -0.90999959 2.93574932 0 0 Z " fill="#2F0505" transform="translate(205,330)"/>
<path d="M0 0 C0.99 0.33 1.98 0.66 3 1 C3 1.66 3 2.32 3 3 C3.70125 3.0825 4.4025 3.165 5.125 3.25 C9.06562729 4.27798973 11.07870173 5.07870173 14 8 C16.00363701 17.51727582 12.7591264 28.57610855 11 38 C10.67 38 10.34 38 10 38 C9.97263293 36.60427948 9.95344011 35.20839779 9.9375 33.8125 C9.92589844 33.03519531 9.91429687 32.25789063 9.90234375 31.45703125 C10 29 10 29 10.4765625 26.640625 C11.56510918 21.14915072 11.75149669 15.54482694 11 10 C9.16603099 7.63134614 7.83003162 7.17917984 5 6 C5 5.34 5 4.68 5 4 C4.01 4 3.02 4 2 4 C1.34 2.68 0.68 1.36 0 0 Z " fill="#2F0404" transform="translate(560,398)"/>
<path d="M0 0 C0.66 0 1.32 0 2 0 C1.67 1.65 1.34 3.3 1 5 C0.360625 5.103125 -0.27875 5.20625 -0.9375 5.3125 C-1.9584375 5.6528125 -1.9584375 5.6528125 -3 6 C-3.33 6.99 -3.66 7.98 -4 9 C-6.10975752 11.10861381 -8.51727697 12.86391183 -10.875 14.6875 C-11.51308594 15.19861328 -12.15117187 15.70972656 -12.80859375 16.23632812 C-13.42605469 16.71908203 -14.04351562 17.20183594 -14.6796875 17.69921875 C-15.52635986 18.36183716 -15.52635986 18.36183716 -16.39013672 19.0378418 C-18 20 -18 20 -21 20 C-17.375 15.125 -17.375 15.125 -14 14 C-12.83180876 12.59817051 -11.66788698 11.1923542 -10.53515625 9.76171875 C-7.68611994 6.49221398 -4.30035464 3.79913256 -1 1 C-0.67 0.67 -0.34 0.34 0 0 Z " fill="#360607" transform="translate(335,150)"/>
<path d="M0 0 C0.66 0.33 1.32 0.66 2 1 C1.3503125 1.5878125 1.3503125 1.5878125 0.6875 2.1875 C-1.09460644 3.97341541 -1.09460644 3.97341541 -2.375 6.3125 C-5.17084534 10.93639806 -7.95717599 14.73942372 -13 17 C-13.66 17.99 -14.32 18.98 -15 20 C-15.99 19.67 -16.98 19.34 -18 19 C-17.34 19 -16.68 19 -16 19 C-15.938125 18.443125 -15.87625 17.88625 -15.8125 17.3125 C-14.65979599 14.03172705 -12.49252176 12.40850418 -10 10 C-9.11699219 9.11699219 -8.23398437 8.23398438 -7.32421875 7.32421875 C-4.8828125 4.8828125 -2.44140625 2.44140625 0 0 Z " fill="#330606" transform="translate(394,179)"/>
<path d="M0 0 C8.68707682 1.13309698 16.86015607 2.68376729 25 6 C25 6.66 25 7.32 25 8 C26.423125 8.433125 26.423125 8.433125 27.875 8.875 C31 10 31 10 33 12 C31.35 12 29.7 12 28 12 C28 11.34 28 10.68 28 10 C27.071875 9.87625 26.14375 9.7525 25.1875 9.625 C22 9 22 9 19 7 C19 6.34 19 5.68 19 5 C18.29875 4.96261719 17.5975 4.92523438 16.875 4.88671875 C10.67748398 4.45727131 5.69990204 3.47354239 0 1 C0 0.67 0 0.34 0 0 Z " fill="#3B0808" transform="translate(413,242)"/>
<path d="M0 0 C-5.2894914 3.28806222 -8.74908765 4.11794174 -15 4 C-15 4.66 -15 5.32 -15 6 C-20.28 6.66 -25.56 7.32 -31 8 C-30.01 7.67 -29.02 7.34 -28 7 C-28 6.34 -28 5.68 -28 5 C-26.96359375 4.80664062 -25.9271875 4.61328125 -24.859375 4.4140625 C-23.48952391 4.15135133 -22.11973548 3.88831329 -20.75 3.625 C-20.06808594 3.49867188 -19.38617188 3.37234375 -18.68359375 3.2421875 C-15.14159076 2.55441993 -12.16699297 1.71131235 -9 0 C-2.475 -1.2375 -2.475 -1.2375 0 0 Z " fill="#70171A" transform="translate(497,509)"/>
<path d="M0 0 C0 3 0 3 -1 5 C-1.66 5 -2.32 5 -3 5 C-3.226875 5.721875 -3.45375 6.44375 -3.6875 7.1875 C-6.03175054 12.21089401 -10.46676973 15.89831613 -15 19 C-15.99 18.67 -16.98 18.34 -18 18 C-17.06409496 16.8944811 -16.12620142 15.79064547 -15.1875 14.6875 C-14.66542969 14.07261719 -14.14335937 13.45773438 -13.60546875 12.82421875 C-10.6626898 9.48047722 -10.6626898 9.48047722 -9 8 C-8.34 8 -7.68 8 -7 8 C-7 7.34 -7 6.68 -7 6 C-6.34 6 -5.68 6 -5 6 C-5 5.34 -5 4.68 -5 4 C-3.37373596 2.61767557 -1.7074998 1.28062485 0 0 Z " fill="#300406" transform="translate(313,171)"/>
<path d="M0 0 C0.99 0.33 1.98 0.66 3 1 C3 2.32 3 3.64 3 5 C4.65 5 6.3 5 8 5 C11.24900602 9.97504047 12.49940808 12.88225104 12 19 C7.88295015 15.32803662 6.06531164 12.0694013 4 7 C3.01904252 5.98131338 2.02297922 4.97648017 1 4 C0.3125 1.8125 0.3125 1.8125 0 0 Z " fill="#781919" transform="translate(490,294)"/>
<path d="M0 0 C0.33 0 0.66 0 1 0 C1.57156108 5.71561076 -0.22682157 9.20266883 -3 14 C-3.43183594 14.75539063 -3.86367187 15.51078125 -4.30859375 16.2890625 C-6.77969112 20.43933286 -6.77969112 20.43933286 -8 22 C-8.66 22 -9.32 22 -10 22 C-8.89159883 17.5663953 -7.72731889 14.60006093 -5 11 C-4.17098641 8.98902643 -3.44571171 6.96167119 -2.74609375 4.90234375 C-2 3 -2 3 0 0 Z " fill="#2D0505" transform="translate(229,279)"/>
<path d="M0 0 C0.33 0.66 0.66 1.32 1 2 C-1.28894757 8.29460581 -1.28894757 8.29460581 -3.47265625 10.4609375 C-5.23067981 12.23244974 -6.11893054 13.93981941 -7.1875 16.1875 C-7.53167969 16.90292969 -7.87585938 17.61835938 -8.23046875 18.35546875 C-8.48441406 18.89816406 -8.73835937 19.44085938 -9 20 C-9.66 20 -10.32 20 -11 20 C-11.268125 20.61875 -11.53625 21.2375 -11.8125 21.875 C-13 24 -13 24 -16 26 C-14.85569823 22.12697862 -13.76679902 18.99736561 -11 16 C-10.34 16 -9.68 16 -9 16 C-8.814375 14.8553125 -8.814375 14.8553125 -8.625 13.6875 C-8 11 -8 11 -6 8 C-5.01 8 -4.02 8 -3 8 C-2.87625 7.4225 -2.7525 6.845 -2.625 6.25 C-1.99351176 3.97664233 -1.11141809 2.0746471 0 0 Z " fill="#310506" transform="translate(246,253)"/>
<path d="M0 0 C-0.639375 0.2475 -1.27875 0.495 -1.9375 0.75 C-4.17301987 1.77924751 -4.17301987 1.77924751 -4.5 3.875 C-4.665 4.57625 -4.83 5.2775 -5 6 C-5.60328125 6.57492187 -6.2065625 7.14984375 -6.828125 7.7421875 C-9.36128324 10.37557862 -10.67676393 12.96050639 -12.25 16.25 C-12.77078125 17.32765625 -13.2915625 18.4053125 -13.828125 19.515625 C-14.21484375 20.33546875 -14.6015625 21.1553125 -15 22 C-16.49294889 17.52115334 -14.75563013 14.24724496 -13 10 C-11.4375 7.4375 -11.4375 7.4375 -10 6 C-9.34 6 -8.68 6 -8 6 C-7.9071875 4.824375 -7.9071875 4.824375 -7.8125 3.625 C-7 1 -7 1 -4.5625 -0.375 C-2 -1 -2 -1 0 0 Z " fill="#280304" transform="translate(432,534)"/>
<path d="M0 0 C1.18746698 3.56240095 0.7516566 5.29040236 0.0390625 8.953125 C-0.29738281 10.71849609 -0.29738281 10.71849609 -0.640625 12.51953125 C-0.88296875 13.75058594 -1.1253125 14.98164063 -1.375 16.25 C-1.84237859 18.6716374 -2.30855975 21.09350627 -2.7734375 23.515625 C-2.9909668 24.64548828 -3.20849609 25.77535156 -3.43261719 26.93945312 C-4.05310327 30.28644687 -4.57049355 33.62387951 -5 37 C-5.33 37 -5.66 37 -6 37 C-6.30914694 26.35160523 -5.83008965 16.05398533 -2 6 C-1.62875 4.88625 -1.2575 3.7725 -0.875 2.625 C-0.441875 1.325625 -0.441875 1.325625 0 0 Z " fill="#1D0101" transform="translate(123,256)"/>
<path d="M0 0 C1.28935074 3.57240491 0.71014912 5.39595515 -0.8125 8.8125 C-2.5305473 12.83495887 -3.81661722 16.78419885 -5 21 C-6.29088868 24.68253515 -7.63782875 28.34329756 -9 32 C-10.00781208 28.88762642 -9.98941341 27.10422635 -8.92578125 24.0234375 C-8.67199707 23.27433105 -8.41821289 22.52522461 -8.15673828 21.75341797 C-7.87813965 20.96854004 -7.59954102 20.18366211 -7.3125 19.375 C-7.03647949 18.57336426 -6.76045898 17.77172852 -6.47607422 16.94580078 C-4.48869482 11.22876115 -2.37801208 5.56734592 0 0 Z " fill="#721B1B" transform="translate(137,216)"/>
<path d="M0 0 C2.64 0.33 5.28 0.66 8 1 C8 1.66 8 2.32 8 3 C5.03 2.505 5.03 2.505 2 2 C2.33 3.051875 2.66 4.10375 3 5.1875 C3.83966782 8.38873357 4.19750904 10.7411008 4 14 C4.66 14 5.32 14 6 14 C6.33 15.98 6.66 17.96 7 20 C5 18.875 5 18.875 3 17 C2.75 13.8125 2.75 13.8125 3 11 C2.01 10.67 1.02 10.34 0 10 C0 6.7 0 3.4 0 0 Z " fill="#565656" transform="translate(413,343)"/>
<path d="M0 0 C0.33 0 0.66 0 1 0 C1.05805933 4.24994263 1.09361654 8.49978324 1.125 12.75 C1.15013672 14.55984375 1.15013672 14.55984375 1.17578125 16.40625 C1.18222656 17.56640625 1.18867188 18.7265625 1.1953125 19.921875 C1.20578613 20.99018555 1.21625977 22.05849609 1.22705078 23.15917969 C1.00161519 25.97979105 0.45848994 27.60787463 -1 30 C-2.32 29.67 -3.64 29.34 -5 29 C-4.34 29 -3.68 29 -3 29 C-1.96065236 25.88195708 -1.70431625 23.2923221 -1.46484375 20.01953125 C-1.37783203 18.85615234 -1.29082031 17.69277344 -1.20117188 16.49414062 C-1.11416016 15.27919922 -1.02714844 14.06425781 -0.9375 12.8125 C-0.80118164 10.97268555 -0.80118164 10.97268555 -0.66210938 9.09570312 C-0.43797842 6.06403705 -0.2174188 3.03215363 0 0 Z " fill="#330608" transform="translate(173,456)"/>
<path d="M0 0 C1 2 1 2 0.546875 3.98828125 C-0.94865974 8.35025758 -2.62458595 12.04097658 -5 16 C-5.49985789 17.5350827 -5.9772543 19.07757934 -6.4375 20.625 C-7.38922032 23.66746761 -7.81542154 24.82596888 -10.1875 27.0625 C-11.0846875 27.5265625 -11.0846875 27.5265625 -12 28 C-8.8513352 18.28083376 -4.70870059 9.05673475 0 0 Z " fill="#300503" transform="translate(218,301)"/>
<path d="M0 0 C0.33 0.66 0.66 1.32 1 2 C-3.06767849 6.99866125 -7.47805623 11.54954697 -12.1875 15.9375 C-12.69829102 16.4219458 -13.20908203 16.9063916 -13.73535156 17.40551758 C-16.35951611 19.81328711 -18.38636933 21.59465241 -22 22 C-14.66666667 14.66666667 -7.33333333 7.33333333 0 0 Z " fill="#1D0101" transform="translate(602,516)"/>
<path d="M0 0 C0.66 0 1.32 0 2 0 C2.40269099 5.36921319 1.02360475 9.15531079 -1 14 C-1.350625 14.969375 -1.70125 15.93875 -2.0625 16.9375 C-3 19 -3 19 -5 20 C-5.042721 18.33388095 -5.04063832 16.66617115 -5 15 C-4.67 14.67 -4.34 14.34 -4 14 C-3.87625 12.96875 -3.7525 11.9375 -3.625 10.875 C-2.95526108 6.7226187 -1.77449415 3.78044406 0 0 Z " fill="#932021" transform="translate(198,336)"/>
<path d="M0 0 C2.96175123 0.61277612 4.38058783 1.25372522 7 3 C7 3.66 7 4.32 7 5 C7.804375 5.268125 8.60875 5.53625 9.4375 5.8125 C10.283125 6.204375 11.12875 6.59625 12 7 C12.33 7.99 12.66 8.98 13 10 C13.99 10 14.98 10 16 10 C16 10.66 16 11.32 16 12 C11.58469088 11.47588057 9.16676442 9.91774457 5.75 7.125 C4.44289063 6.07699219 4.44289063 6.07699219 3.109375 5.0078125 C1 3 1 3 0 0 Z " fill="#932022" transform="translate(450,253)"/>
<path d="M0 0 C2.475 0.495 2.475 0.495 5 1 C5 1.99 5 2.98 5 4 C5.66 4 6.32 4 7 4 C7 4.99 7 5.98 7 7 C7.66 7 8.32 7 9 7 C9.66 8.65 10.32 10.3 11 12 C5.90025053 10.65006632 2.80502464 7.32802771 0 3 C0 2.01 0 1.02 0 0 Z " fill="#901F20" transform="translate(533,369)"/>
<path d="M0 0 C0.33 0.66 0.66 1.32 1 2 C0.27683594 2.88751953 0.27683594 2.88751953 -0.4609375 3.79296875 C-1.09257812 4.58316406 -1.72421875 5.37335938 -2.375 6.1875 C-3.31472656 7.35345703 -3.31472656 7.35345703 -4.2734375 8.54296875 C-5.98403752 10.97728417 -6.91383176 13.2483738 -8 16 C-10.625 18.8125 -10.625 18.8125 -13 21 C-13.66 20.67 -14.32 20.34 -15 20 C-13.44052267 17.78947874 -11.87753183 15.58158389 -10.3125 13.375 C-9.87744141 12.75753906 -9.44238281 12.14007813 -8.99414062 11.50390625 C-6.15808974 7.51242722 -3.17970328 3.72397682 0 0 Z " fill="#741A1B" transform="translate(180,145)"/>
<path d="M0 0 C-4.58921384 3.15654048 -8.29370646 5.57202798 -14 6 C-14.33 6.99 -14.66 7.98 -15 9 C-17.5625 10.1875 -17.5625 10.1875 -20 11 C-19.67 9.68 -19.34 8.36 -19 7 C-18.34 7 -17.68 7 -17 7 C-17 6.34 -17 5.68 -17 5 C-15.68 5 -14.36 5 -13 5 C-13 4.34 -13 3.68 -13 3 C-11.21189234 2.30329584 -9.41937948 1.61788811 -7.625 0.9375 C-6.62726563 0.55464844 -5.62953125 0.17179688 -4.6015625 -0.22265625 C-2 -1 -2 -1 0 0 Z " fill="#360708" transform="translate(452,522)"/>
<path d="M0 0 C2 2 2 2 2.125 5.625 C2.08375 6.73875 2.0425 7.8525 2 9 C1.01 9.33 0.02 9.66 -1 10 C-1 12.31 -1 14.62 -1 17 C-1.66 17.33 -2.32 17.66 -3 18 C-3.37634203 11.19796625 -2.77471079 6.24309927 0 0 Z " fill="#921E1F" transform="translate(575,421)"/>
<path d="M0 0 C0.66 1.32 1.32 2.64 2 4 C2.66 4 3.32 4 4 4 C7 10.625 7 10.625 7 14 C7.66 14 8.32 14 9 14 C9 15.32 9 16.64 9 18 C6 17 6 17 4.39453125 14.453125 C3.61142578 12.86757813 3.61142578 12.86757813 2.8125 11.25 C2.01779297 9.67992187 2.01779297 9.67992187 1.20703125 8.078125 C0.03442805 5.08779709 -0.26382945 3.16595336 0 0 Z " fill="#912122" transform="translate(518,341)"/>
<path d="M0 0 C3.39966484 4.07959781 5.51641631 7.25909873 6.9375 12.375 C7.88848931 16.03359663 7.88848931 16.03359663 9.6875 19.3125 C10.120625 20.199375 10.55375 21.08625 11 22 C10.67 22.66 10.34 23.32 10 24 C5.22996366 16.91308887 0 8.73346197 0 0 Z " fill="#430A0B" transform="translate(506,320)"/>
<path d="M0 0 C0.66 0 1.32 0 2 0 C2 0.99 2 1.98 2 3 C2.66 3 3.32 3 4 3 C4.33 4.98 4.66 6.96 5 9 C5.66 9 6.32 9 7 9 C7 11.31 7 13.62 7 16 C3.79971821 13.86647881 3.5096091 13.37249789 2.375 9.9375 C1.58182954 7.22854212 1.58182954 7.22854212 0 5 C-0.04063832 3.33382885 -0.042721 1.66611905 0 0 Z " fill="#932023" transform="translate(508,319)"/>
<path d="M0 0 C-0.33 0.66 -0.66 1.32 -1 2 C-1.7425 2.12375 -2.485 2.2475 -3.25 2.375 C-6.68495087 3.15567065 -8.3341216 4.73400336 -11 7 C-13.92509543 8.85493856 -16.89846479 10.46562528 -20 12 C-9.5768945 -0.82559435 -9.5768945 -0.82559435 0 0 Z " fill="#3D0707" transform="translate(357,138)"/>
<path d="M0 0 C-6.93966753 4.62644502 -16.78323488 5.49300591 -25 5 C-25 4.67 -25 4.34 -25 4 C-21.58700991 3.1306619 -18.16916192 2.28220776 -14.75 1.4375 C-13.78191406 1.19064453 -12.81382812 0.94378906 -11.81640625 0.68945312 C-10.88183594 0.46064453 -9.94726562 0.23183594 -8.984375 -0.00390625 C-7.69611816 -0.32597046 -7.69611816 -0.32597046 -6.38183594 -0.65454102 C-3.90763516 -1.0133965 -2.35189657 -0.78317203 0 0 Z " fill="#240203" transform="translate(478,593)"/>
<path d="M0 0 C0.99 0 1.98 0 3 0 C2.37240135 2.92879371 1.41377341 5.36095629 0 8 C-0.66 8 -1.32 8 -2 8 C-2 9.32 -2 10.64 -2 12 C-2.99 12.33 -3.98 12.66 -5 13 C-4.34 9.7 -3.68 6.4 -3 3 C-2.01 3 -1.02 3 0 3 C0 2.01 0 1.02 0 0 Z " fill="#8D2124" transform="translate(424,543)"/>
<path d="M0 0 C0 2 0 2 -1.9375 4 C-2.618125 4.66 -3.29875 5.32 -4 6 C-4.33 6.66 -4.66 7.32 -5 8 C-5.66 8 -6.32 8 -7 8 C-7 8.99 -7 9.98 -7 11 C-8.65 11.33 -10.3 11.66 -12 12 C-12 12.99 -12 13.98 -12 15 C-12.66 15 -13.32 15 -14 15 C-12.75023244 11.34683329 -12.32901247 10.21934164 -9 8 C-8.67 7.01 -8.34 6.02 -8 5 C-2.53488372 0 -2.53488372 0 0 0 Z " fill="#7B1D1E" transform="translate(436,531)"/>
<path d="M0 0 C4.66825827 -0.70731186 7.03280231 1.07722471 10.64453125 3.7109375 C11.09183594 4.13632812 11.53914062 4.56171875 12 5 C12 5.66 12 6.32 12 7 C3.02760736 5.60429448 3.02760736 5.60429448 0 2 C0 1.34 0 0.68 0 0 Z " fill="#8B1D1F" transform="translate(560,396)"/>
<path d="M0 0 C0.33 0 0.66 0 1 0 C1.125 7.625 1.125 7.625 0 11 C-0.66 11 -1.32 11 -2 11 C-2 12.65 -2 14.3 -2 16 C-1.360625 16.12375 -0.72125 16.2475 -0.0625 16.375 C0.9584375 16.684375 0.9584375 16.684375 2 17 C2.33 17.66 2.66 18.32 3 19 C1.02 18.67 -0.96 18.34 -3 18 C-3 13.71 -3 9.42 -3 5 C-2.34 4.67 -1.68 4.34 -1 4 C-0.34786708 1.97536745 -0.34786708 1.97536745 0 0 Z " fill="#A2A2A2" transform="translate(455,338)"/>
<path d="M0 0 C3.30477928 1.65238964 4.19939987 5.20781576 5.6875 8.4375 C6.02072266 9.13166016 6.35394531 9.82582031 6.69726562 10.54101562 C7.53091594 12.33137066 8.27264253 14.16389131 9 16 C8.67 16.66 8.34 17.32 8 18 C4.17454828 14.70219679 2.82056192 11.59475151 1 7 C0.67 6.67 0.34 6.34 0 6 C-0.04080783 4.00041636 -0.04254356 1.99954746 0 0 Z " fill="#3E0908" transform="translate(518,346)"/>
<path d="M0 0 C0.33 0 0.66 0 1 0 C1 1.65 1 3.3 1 5 C0.34 5 -0.32 5 -1 5 C-1 7.64 -1 10.28 -1 13 C-0.34 13 0.32 13 1 13 C1.0825 12.4225 1.165 11.845 1.25 11.25 C2.20531013 8.3840696 3.78469173 7.0009236 6 5 C4.66759388 8.58724724 3.29060528 11.91649289 1 15 C-0.32 15 -1.64 15 -3 15 C-2.88529863 13.24929483 -2.75780972 11.49942464 -2.625 9.75 C-2.55539062 8.77546875 -2.48578125 7.8009375 -2.4140625 6.796875 C-2.01534751 4.10366811 -1.36492937 2.33036721 0 0 Z " fill="#808080" transform="translate(430,375)"/>
<path d="M0 0 C1.32 0 2.64 0 4 0 C2.05119657 4.05765352 -0.3041815 7.82953716 -2.66015625 11.66015625 C-4.11979157 14.03104625 -4.11979157 14.03104625 -5 17 C-5.66 17 -6.32 17 -7 17 C-5.49637741 13.21283842 -3.94512999 9.44754813 -2.375 5.6875 C-1.92898437 4.61886719 -1.48296875 3.55023438 -1.0234375 2.44921875 C-0.68570313 1.64097656 -0.34796875 0.83273438 0 0 Z " fill="#691716" transform="translate(248,244)"/>
<path d="M0 0 C1.43791516 0.14168137 2.8753237 0.28851043 4.3125 0.4375 C5.11300781 0.51871094 5.91351563 0.59992188 6.73828125 0.68359375 C9 1 9 1 12 2 C12 2.99 12 3.98 12 5 C7.428721 4.45144652 3.32564205 3.58255197 -1 2 C-0.67 1.34 -0.34 0.68 0 0 Z " fill="#911E1F" transform="translate(423,241)"/>
<path d="M0 0 C0.33 0.66 0.66 1.32 1 2 C0.50628906 2.68707031 0.01257813 3.37414062 -0.49609375 4.08203125 C-1.13675781 4.98308594 -1.77742188 5.88414062 -2.4375 6.8125 C-3.07558594 7.70582031 -3.71367187 8.59914062 -4.37109375 9.51953125 C-6.13290268 11.97134334 -6.13290268 11.97134334 -7 15 C-9.0625 16.1875 -9.0625 16.1875 -11 17 C-10.47747513 12.9398405 -9.41962755 10.90310687 -6.625 7.9375 C-4.24809616 5.38359268 -2.05108651 2.8249627 0 0 Z " fill="#2C0404" transform="translate(263,229)"/>
<path d="M0 0 C0.33 0.99 0.66 1.98 1 3 C0.15136719 4.62573242 0.15136719 4.62573242 -1.203125 6.35546875 C-1.68910156 6.97744141 -2.17507813 7.59941406 -2.67578125 8.24023438 C-3.19527344 8.88283203 -3.71476563 9.52542969 -4.25 10.1875 C-4.75402344 10.84169922 -5.25804687 11.49589844 -5.77734375 12.16992188 C-8.62700336 15.75630451 -8.62700336 15.75630451 -10 17 C-10.99 17 -11.98 17 -13 17 C-12.31292969 16.10796875 -11.62585938 15.2159375 -10.91796875 14.296875 C-10.00779952 13.11459332 -9.097644 11.9323011 -8.1875 10.75 C-7.73568359 10.16347656 -7.28386719 9.57695312 -6.81835938 8.97265625 C-4.5268922 5.99542152 -2.24468847 3.01280445 0 0 Z " fill="#1C0101" transform="translate(632,480)"/>
<path d="M0 0 C0 0.66 0 1.32 0 2 C-3.4019487 4.09350689 -6.05272412 4.17942163 -10 4 C-10 4.66 -10 5.32 -10 6 C-10.99 6 -11.98 6 -13 6 C-13 5.34 -13 4.68 -13 4 C-8.5975268 0.34916857 -5.67177385 -0.45374191 0 0 Z " fill="#932021" transform="translate(455,523)"/>
<path d="M0 0 C0.99 0.33 1.98 0.66 3 1 C1.44066679 2.27471705 -0.12261706 3.54460214 -1.6875 4.8125 C-2.55761719 5.52019531 -3.42773438 6.22789062 -4.32421875 6.95703125 C-10.9292543 12 -10.9292543 12 -15 12 C-15 11.34 -15 10.68 -15 10 C-14.01 10 -13.02 10 -12 10 C-12 9.34 -12 8.68 -12 8 C-10.68 8 -9.36 8 -8 8 C-7.67 7.01 -7.34 6.02 -7 5 C-6.01 5 -5.02 5 -4 5 C-4 4.34 -4 3.68 -4 3 C-3.01 2.67 -2.02 2.34 -1 2 C-0.67 1.34 -0.34 0.68 0 0 Z " fill="#230102" transform="translate(536,482)"/>
<path d="M0 0 C1.32 0.33 2.64 0.66 4 1 C4 2.65 4 4.3 4 6 C3.34 6 2.68 6 2 6 C2.02320313 6.62648438 2.04640625 7.25296875 2.0703125 7.8984375 C2.08835937 8.71570313 2.10640625 9.53296875 2.125 10.375 C2.14820313 11.18710937 2.17140625 11.99921875 2.1953125 12.8359375 C2 15 2 15 0 17 C0.33 12.38 0.66 7.76 1 3 C0.01 3.33 -0.98 3.66 -2 4 C-1.34 2.68 -0.68 1.36 0 0 Z " fill="#4B4B4B" transform="translate(455,332)"/>
<path d="M0 0 C0.99 0 1.98 0 3 0 C1.59928507 5.29158974 -1.85487245 7.77478044 -6 11 C-6.33 10.01 -6.66 9.02 -7 8 C-6.21625 7.236875 -5.4325 6.47375 -4.625 5.6875 C-1.92742283 3.09108195 -1.92742283 3.09108195 0 0 Z " fill="#972022" transform="translate(557,465)"/>
<path d="M0 0 C0.33 0 0.66 0 1 0 C1.3690205 9.41002278 1.3690205 9.41002278 -1 14 C-1.66 14 -2.32 14 -3 14 C-3.40652968 8.57960425 -2.03993514 4.92984325 0 0 Z " fill="#911F21" transform="translate(191,357)"/>
<path d="M0 0 C0.66 0 1.32 0 2 0 C1.42365861 4.75481646 -0.55068521 7.97048212 -3 12 C-3.66 11.67 -4.32 11.34 -5 11 C-4.48847632 7.21472479 -3.79154158 5.55891312 -1 3 C-0.67 2.01 -0.34 1.02 0 0 Z " fill="#952021" transform="translate(244,248)"/>
<path d="M0 0 C1.09916562 3.29749685 0.89023727 4.54881363 0.22265625 7.88671875 C0.03896484 8.82451172 -0.14472656 9.76230469 -0.33398438 10.72851562 C-0.53314453 11.70498047 -0.73230469 12.68144531 -0.9375 13.6875 C-1.13279297 14.67556641 -1.32808594 15.66363281 -1.52929688 16.68164062 C-2.01275776 19.12252852 -2.50323966 21.56179009 -3 24 C-3.33 24 -3.66 24 -4 24 C-4.02687279 22.18757948 -4.04633715 20.37504767 -4.0625 18.5625 C-4.07410156 17.55316406 -4.08570313 16.54382813 -4.09765625 15.50390625 C-4 13 -4 13 -3 12 C-2.63021574 10.36197128 -2.30331217 8.71412956 -2 7.0625 C-1.1070615 2.21412301 -1.1070615 2.21412301 0 0 Z " fill="#791B1C" transform="translate(184,386)"/>
<path d="M0 0 C-1.77945087 4.04420651 -4.39529673 7.46078487 -7 11 C-7 7.56169885 -6.62599243 4.38035912 -6 1 C-4 0 -4 0 0 0 Z " fill="#781819" transform="translate(267,223)"/>
<path d="M0 0 C-4.9000081 3.33455096 -9.20644472 5.67231025 -15 7 C-13.97668915 4.25382681 -13.30743298 3.17560066 -10.72265625 1.69921875 C-9.84480469 1.36535156 -8.96695312 1.03148437 -8.0625 0.6875 C-6.74958984 0.16736328 -6.74958984 0.16736328 -5.41015625 -0.36328125 C-3 -1 -3 -1 0 0 Z " fill="#2B0505" transform="translate(519,497)"/>
<path d="M0 0 C1.30979218 3.61032461 0.69111399 5.62664358 -0.75 9.125 C-1.09546875 9.99382812 -1.4409375 10.86265625 -1.796875 11.7578125 C-3 14 -3 14 -6 16 C-6 14.68 -6 13.36 -6 12 C-5.34 12 -4.68 12 -4 12 C-3.896875 11.319375 -3.79375 10.63875 -3.6875 9.9375 C-2.85274981 6.37084011 -1.50527246 3.33777806 0 0 Z " fill="#410A09" transform="translate(569,436)"/>
<path d="M0 0 C0.66 0.33 1.32 0.66 2 1 C1.67 5.95 1.34 10.9 1 16 C-1 14 -1 14 -1.23046875 11.25 C-1.21628906 10.1775 -1.20210937 9.105 -1.1875 8 C-1.18105469 6.9275 -1.17460937 5.855 -1.16796875 4.75 C-1 2 -1 2 0 0 Z " fill="#942121" transform="translate(174,422)"/>
<path d="M0 0 C6.13602988 1.41600689 10.26698362 5.0663375 15 9 C11.13304322 9 8.4911548 7.58090029 5 6 C5 5.34 5 4.68 5 4 C3.35178756 2.96986723 1.68496298 1.96885372 0 1 C0 0.67 0 0.34 0 0 Z " fill="#460C0C" transform="translate(446,254)"/>
<path d="M0 0 C1.65 0 3.3 0 5 0 C1.88983545 3.28788824 -1.01618925 5.83735988 -5 8 C-4.1875 5.5625 -4.1875 5.5625 -3 3 C-2.01 2.67 -1.02 2.34 0 2 C0 1.34 0 0.68 0 0 Z " fill="#96201E" transform="translate(436,531)"/>
<path d="M0 0 C0.33 0.66 0.66 1.32 1 2 C-0.10152406 3.43952597 -1.2063304 4.87654071 -2.3125 6.3125 C-2.92738281 7.11300781 -3.54226563 7.91351563 -4.17578125 8.73828125 C-5.69916307 10.62701374 -7.24434407 12.33077636 -9 14 C-9.66 13.67 -10.32 13.34 -11 13 C-10.06027344 11.96939453 -10.06027344 11.96939453 -9.1015625 10.91796875 C-8.28429687 10.01691406 -7.46703125 9.11585938 -6.625 8.1875 C-5.81289063 7.29417969 -5.00078125 6.40085937 -4.1640625 5.48046875 C-1.90927093 3.00367326 -1.90927093 3.00367326 0 0 Z " fill="#220201" transform="translate(618,498)"/>
<path d="M0 0 C0.66 0 1.32 0 2 0 C1.39009109 3.55780196 0.4216319 6.6828589 -1 10 C-1.66 10 -2.32 10 -3 10 C-3.2295711 6.63295715 -3.33943529 4.58629732 -1.625 1.625 C-1.08875 1.08875 -0.5525 0.5525 0 0 Z " fill="#971F20" transform="translate(570,442)"/>
<path d="M0 0 C0.66 0 1.32 0 2 0 C1.38479725 3.99881788 -0.60268669 6.80358226 -3 10 C-3.66 10 -4.32 10 -5 10 C-4.38479725 6.00118212 -2.39731331 3.19641774 0 0 Z " fill="#922223" transform="translate(254,235)"/>
<path d="M0 0 C0.33 0.66 0.66 1.32 1 2 C-2.32307692 5.93846154 -2.32307692 5.93846154 -5.75 6.25 C-6.4925 6.1675 -7.235 6.085 -8 6 C-8.33 5.34 -8.66 4.68 -9 4 C-8.34 3.34 -7.68 2.68 -7 2 C-5.33333333 2 -3.66666667 2 -2 2 C-1.34 1.34 -0.68 0.68 0 0 Z " fill="#330608" transform="translate(369,204)"/>
<path d="M0 0 C0.33 0 0.66 0 1 0 C0.91266424 1.60517097 0.80447776 3.20921662 0.6875 4.8125 C0.62949219 5.70582031 0.57148438 6.59914063 0.51171875 7.51953125 C-0.06313581 10.30604 -0.8206856 11.24135754 -3 13 C-2.88490339 11.58249437 -2.75746342 10.16598831 -2.625 8.75 C-2.55539063 7.96109375 -2.48578125 7.1721875 -2.4140625 6.359375 C-1.98492887 3.914123 -1.21399362 2.15163097 0 0 Z " fill="#200202" transform="translate(205,330)"/>
<path d="M0 0 C0.66 0 1.32 0 2 0 C1.67 1.32 1.34 2.64 1 4 C-0.32 4.33 -1.64 4.66 -3 5 C-3 4.34 -3 3.68 -3 3 C-2.01 3 -1.02 3 0 3 C0 2.01 0 1.02 0 0 Z M-5 5 C-4.34 5 -3.68 5 -3 5 C-3.33 6.65 -3.66 8.3 -4 10 C-4.99 10 -5.98 10 -7 10 C-6.34 8.35 -5.68 6.7 -5 5 Z " fill="#952223" transform="translate(374,194)"/>
<path d="M0 0 C0.66 0.99 1.32 1.98 2 3 C-0.31 4.98 -2.62 6.96 -5 9 C-5.66 8.67 -6.32 8.34 -7 8 C-4.69 5.36 -2.38 2.72 0 0 Z " fill="#70171A" transform="translate(200,123)"/>
<path d="M0 0 C0.66 0.33 1.32 0.66 2 1 C0.37660195 2.70884005 -1.29319053 4.37446717 -3 6 C-3.66 6 -4.32 6 -5 6 C-5.66 7.65 -6.32 9.3 -7 11 C-7.99 10.34 -8.98 9.68 -10 9 C-6.7 6.03 -3.4 3.06 0 0 Z " fill="#721B1C" transform="translate(218,107)"/>
<path d="M0 0 C-0.66 1.32 -1.32 2.64 -2 4 C-2.99 4 -3.98 4 -5 4 C-5 4.66 -5 5.32 -5 6 C-6.96147874 7.38938077 -8.96166576 8.7260411 -11 10 C-11.66 9.67 -12.32 9.34 -13 9 C-11.21326795 7.4941255 -9.42046492 5.9954515 -7.625 4.5 C-6.62726563 3.6646875 -5.62953125 2.829375 -4.6015625 1.96875 C-2 0 -2 0 0 0 Z " fill="#721B1E" transform="translate(233,97)"/>
<path d="M0 0 C0.66 0.33 1.32 0.66 2 1 C-3.14285714 6.57142857 -3.14285714 6.57142857 -7 7 C-7 7.66 -7 8.32 -7 9 C-7.66 9 -8.32 9 -9 9 C-7.48328036 4.44984107 -3.83108947 2.49942736 0 0 Z " fill="#982122" transform="translate(547,478)"/>
<path d="M0 0 C1.5 1.3125 1.5 1.3125 3 3 C3 3.99 3 4.98 3 6 C3.99 6.33 4.98 6.66 6 7 C6.33 9.31 6.66 11.62 7 14 C0 5.25 0 5.25 0 0 Z " fill="#721B1B" transform="translate(150,454)"/>
<path d="M0 0 C0.33 0 0.66 0 1 0 C0.55966813 5.19591612 0.11696661 8.66335081 -3 13 C-4 11 -4 11 -3.22265625 8.3984375 C-2.83980469 7.40070313 -2.45695313 6.40296875 -2.0625 5.375 C-1.68222656 4.37210937 -1.30195312 3.36921875 -0.91015625 2.3359375 C-0.60980469 1.56507813 -0.30945313 0.79421875 0 0 Z " fill="#180000" transform="translate(569,431)"/>
<path d="M0 0 C0.33 0 0.66 0 1 0 C1.19392201 5.52677733 0.7479503 9.75614911 -1 15 C-1.33 15 -1.66 15 -2 15 C-2.19392201 9.47322267 -1.7479503 5.24385089 0 0 Z " fill="#430A0A" transform="translate(178,419)"/>
<path d="M0 0 C0.99 0.33 1.98 0.66 3 1 C3 1.66 3 2.32 3 3 C3.721875 3.103125 4.44375 3.20625 5.1875 3.3125 C8.24491993 4.05986932 10.38329635 5.28045189 13 7 C11 8 11 8 7.875 7.0625 C6.92625 6.711875 5.9775 6.36125 5 6 C5 5.34 5 4.68 5 4 C4.01 4 3.02 4 2 4 C1.34 2.68 0.68 1.36 0 0 Z " fill="#41090B" transform="translate(560,398)"/>
<path d="M0 0 C1.0494188 3.14825641 0.98655124 3.98701503 0.1875 7.0625 C0.01605469 7.75472656 -0.15539062 8.44695312 -0.33203125 9.16015625 C-1 11 -1 11 -3 13 C-2.88490339 11.58249437 -2.75746342 10.16598831 -2.625 8.75 C-2.55539063 7.96109375 -2.48578125 7.1721875 -2.4140625 6.359375 C-1.98492887 3.914123 -1.21399362 2.15163097 0 0 Z " fill="#1F0102" transform="translate(187,386)"/>
<path d="M0 0 C0.66 0 1.32 0 2 0 C1.63076923 6.4 1.63076923 6.4 -1.5625 9.4375 C-2.7690625 10.2109375 -2.7690625 10.2109375 -4 11 C-2.7874262 7.27566618 -1.49140021 3.62197194 0 0 Z " fill="#210202" transform="translate(210,318)"/>
<path d="M0 0 C4.8 3.32307692 4.8 3.32307692 5.8125 6.75 C5.874375 7.4925 5.93625 8.235 6 9 C5.34 9 4.68 9 4 9 C0.88002198 5.69649386 0 4.67590167 0 0 Z " fill="#2C0404" transform="translate(485,289)"/>
<path d="M0 0 C7.57142857 4 7.57142857 4 10 8 C8.35 7.67 6.7 7.34 5 7 C5 6.34 5 5.68 5 5 C4.34 5 3.68 5 3 5 C1.375 3.625 1.375 3.625 0 2 C0 1.34 0 0.68 0 0 Z " fill="#2E0304" transform="translate(464,268)"/>
<path d="M0 0 C2.475 0.99 2.475 0.99 5 2 C5.33 4.31 5.66 6.62 6 9 C5.67 8.34 5.34 7.68 5 7 C4.01 6.67 3.02 6.34 2 6 C0.8125 2.9375 0.8125 2.9375 0 0 Z " fill="#7E1C1C" transform="translate(502,313)"/>
<path d="M0 0 C0.721875 0.103125 1.44375 0.20625 2.1875 0.3125 C1.1975 0.6425 0.2075 0.9725 -0.8125 1.3125 C-1.1425 2.3025 -1.4725 3.2925 -1.8125 4.3125 C-3.7925 4.6425 -5.7725 4.9725 -7.8125 5.3125 C-3.50480769 0.38942308 -3.50480769 0.38942308 0 0 Z " fill="#340505" transform="translate(406.8125,170.6875)"/>
<path d="M0 0 C-3.63 2.31 -7.26 4.62 -11 7 C-11.33 6.34 -11.66 5.68 -12 5 C-11.34 5 -10.68 5 -10 5 C-10 4.34 -10 3.68 -10 3 C-3.375 -1.125 -3.375 -1.125 0 0 Z " fill="#190000" transform="translate(252,84)"/>
<path d="M0 0 C0.33 0.66 0.66 1.32 1 2 C0.67 2.99 0.34 3.98 0 5 C0.66 5 1.32 5 2 5 C2 5.99 2 6.98 2 8 C0.68 8 -0.64 8 -2 8 C-2 5.69 -2 3.38 -2 1 C-1.34 0.67 -0.68 0.34 0 0 Z " fill="#3B3B3B" transform="translate(427,385)"/>
<path d="M0 0 C0.66 0 1.32 0 2 0 C2 0.99 2 1.98 2 3 C2.66 3 3.32 3 4 3 C4.66 4.65 5.32 6.3 6 8 C3.5625 7.375 3.5625 7.375 1 6 C0.1875 2.875 0.1875 2.875 0 0 Z " fill="#962120" transform="translate(528,360)"/>
<path d="M0 0 C2 2 2 2 2.125 4.625 C2.08375 5.40875 2.0425 6.1925 2 7 C2.66 7 3.32 7 4 7 C4.33 8.98 4.66 10.96 5 13 C3.046875 11.82421875 3.046875 11.82421875 1 10 C0.390625 7.51953125 0.390625 7.51953125 0.25 4.8125 C0.19328125 3.91144531 0.1365625 3.01039063 0.078125 2.08203125 C0.05234375 1.39496094 0.0265625 0.70789063 0 0 Z " fill="#8C8C8C" transform="translate(415,350)"/>
<path d="M0 0 C0 0.99 0 1.98 0 3 C-2.64 3 -5.28 3 -8 3 C-8 2.34 -8 1.68 -8 1 C-5.07175348 0.02391783 -3.04386724 -0.08226668 0 0 Z " fill="#951F20" transform="translate(464,519)"/>
<path d="M0 0 C2.66753731 0.36793618 3.81998328 0.81998328 5.75 2.75 C7.21079991 5.37943983 7.24687966 7.0374441 7 10 C4.3513141 6.80331012 2.06007659 3.60513403 0 0 Z " fill="#75191D" transform="translate(160,473)"/>
<path d="M0 0 C0.66 0 1.32 0 2 0 C2 1.65 2 3.3 2 5 C1.34 5 0.68 5 0 5 C0 6.32 0 7.64 0 9 C-0.66 9 -1.32 9 -2 9 C-2.20140476 5.37471432 -1.85776765 3.13498292 0 0 Z " fill="#972121" transform="translate(207,315)"/>
<path d="M0 0 C2.31 0 4.62 0 7 0 C7.66 1.65 8.32 3.3 9 5 C8.01 4.34 7.02 3.68 6 3 C2.87478167 2.83300768 2.87478167 2.83300768 0 3 C0 2.01 0 1.02 0 0 Z " fill="#761919" transform="translate(403,169)"/>
<path d="M0 0 C0.66 0.33 1.32 0.66 2 1 C0.375 3.0625 0.375 3.0625 -2 5 C-5.25 4.75 -5.25 4.75 -8 4 C-5.31143836 2.20762558 -3.0466145 1.01553817 0 0 Z " fill="#751B1A" transform="translate(293,63)"/>
<path d="M0 0 C0.33 0.66 0.66 1.32 1 2 C-1.84936103 5.00765886 -4.23511958 7.27845212 -8 9 C-7.04663979 7.68388323 -6.08714226 6.37221039 -5.125 5.0625 C-4.59132813 4.33160156 -4.05765625 3.60070312 -3.5078125 2.84765625 C-2 1 -2 1 0 0 Z " fill="#6B1415" transform="translate(555,466)"/>
<path d="M0 0 C0.66 0.33 1.32 0.66 2 1 C1.67 3.97 1.34 6.94 1 10 C-1.29404844 6.55892734 -1.26293056 5.03160191 -1 1 C-0.67 0.67 -0.34 0.34 0 0 Z " fill="#952022" transform="translate(176,411)"/>
<path d="M0 0 C0.33 0.66 0.66 1.32 1 2 C-0.65 3.98 -2.3 5.96 -4 8 C-4.66 7.67 -5.32 7.34 -6 7 C-4.19587357 3.73539027 -3.16605307 2.11070205 0 0 Z " fill="#1E0101" transform="translate(375,199)"/>
<path d="M0 0 C-0.66 0.66 -1.32 1.32 -2 2 C-2.99 2 -3.98 2 -5 2 C-5 2.66 -5 3.32 -5 4 C-5.99 4 -6.98 4 -8 4 C-8 3.01 -8 2.02 -8 1 C-2.25 -1.125 -2.25 -1.125 0 0 Z " fill="#971F23" transform="translate(535,491)"/>
<path d="M0 0 C0.33 0.99 0.66 1.98 1 3 C1.66 3 2.32 3 3 3 C3 4.65 3 6.3 3 8 C0.9375 6.25 0.9375 6.25 -1 4 C-0.75 1.75 -0.75 1.75 0 0 Z " fill="#942222" transform="translate(502,307)"/>
<path d="M0 0 C0.99 0 1.98 0 3 0 C2.37240135 2.92879371 1.41377341 5.36095629 0 8 C-0.66 7.67 -1.32 7.34 -2 7 C-1.34 4.69 -0.68 2.38 0 0 Z " fill="#971E20" transform="translate(424,543)"/>
<path d="M0 0 C1.65 0 3.3 0 5 0 C5.66 1.32 6.32 2.64 7 4 C6.01 4 5.02 4 4 4 C4 3.34 4 2.68 4 2 C2.68 2 1.36 2 0 2 C0 1.34 0 0.68 0 0 Z " fill="#981F21" transform="translate(560,396)"/>
<path d="M0 0 C-0.50603992 2.16874252 -0.99983813 3.99967627 -2 6 C-2.66 6 -3.32 6 -4 6 C-4.33 5.01 -4.66 4.02 -5 3 C-2.25 0 -2.25 0 0 0 Z " fill="#962024" transform="translate(261,228)"/>
<path d="M0 0 C0.33 0.99 0.66 1.98 1 3 C-0.65 4.65 -2.3 6.3 -4 8 C-4.66 7.67 -5.32 7.34 -6 7 C-5.525625 6.566875 -5.05125 6.13375 -4.5625 5.6875 C-2.76313043 3.97690387 -2.76313043 3.97690387 -2 1 C-1.34 0.67 -0.68 0.34 0 0 Z " fill="#2D0403" transform="translate(398,176)"/>
</svg>
